<?xml version="1.0" encoding="UTF-8"?>
<svg version="1.1" xmlns="http://www.w3.org/2000/svg" width="367" height="679">
<path d="M0 0 C0.97624329 -0.00671722 1.95248657 -0.01343445 2.95831299 -0.02035522 C16.00786141 -0.07254246 27.82508944 1.32113906 40.4375 4.625 C42.39411227 5.04967513 44.35206329 5.46834481 46.3125 5.875 C63.81008274 10.35282368 80.17987127 18.91565865 95.25 28.6875 C96.04019531 29.19410156 96.83039063 29.70070313 97.64453125 30.22265625 C98.53205078 30.91681641 98.53205078 30.91681641 99.4375 31.625 C99.4375 32.285 99.4375 32.945 99.4375 33.625 C100.0975 33.83125 100.7575 34.0375 101.4375 34.25 C106.6411018 36.63498416 111.6455087 40.30307202 115.4375 44.625 C115.4375 45.285 115.4375 45.945 115.4375 46.625 C116.4275 46.625 117.4175 46.625 118.4375 46.625 C119.62708673 48.01851588 120.80774833 49.42083046 121.9375 50.86328125 C123.53928595 52.74454548 125.24191882 54.27665891 127.125 55.875 C134.71500525 62.36230638 142.4774749 69.57304556 148.4375 77.625 C148.4375 78.285 148.4375 78.945 148.4375 79.625 C149.035625 79.8725 149.63375 80.12 150.25 80.375 C152.77336869 81.81692497 153.93780076 83.15049626 155.4375 85.625 C155.4375 88.625 155.4375 88.625 153.1875 91.1875 C150.8375273 93.27043035 149.16447429 94.26151286 146.4375 95.625 C144.74752677 97.26802953 143.08533606 98.93971312 141.4375 100.625 C140.25914699 101.6770028 139.07066604 102.71771689 137.875 103.75 C134.85984233 106.35477704 131.91659278 109.02416945 128.99853516 111.73730469 C124.53788287 115.88123252 120.04255354 119.80711234 115.09765625 123.37109375 C112.64193976 125.22588197 110.5839824 127.42485554 108.4375 129.625 C106.44380011 131.39806912 104.42779032 133.14223622 102.40234375 134.87890625 C101.06473301 136.0675981 99.76944912 137.30527133 98.515625 138.58203125 C95.4294253 141.6160208 91.99743598 144.16999844 88.58203125 146.8203125 C86.36126498 148.44713654 86.36126498 148.44713654 85.4375 150.625 C84.7775 150.625 84.1175 150.625 83.4375 150.625 C83.1075 151.615 82.7775 152.605 82.4375 153.625 C80.78438385 154.64724497 79.11484865 155.64302278 77.4375 156.625 C75.52754352 158.29415967 73.65508111 160.00674941 71.8125 161.75 C66.95519819 166.30481298 61.95348541 170.53681763 56.71484375 174.65234375 C54.38818966 176.52422651 54.38818966 176.52422651 52.78515625 178.84765625 C51.4375 180.625 51.4375 180.625 48.9375 181.125 C46.4375 180.625 46.4375 180.625 44.625 178.75 C43.4375 176.625 43.4375 176.625 43.4375 174.625 C42.5403125 174.2846875 42.5403125 174.2846875 41.625 173.9375 C38.81507549 172.25154529 38.07656224 170.46183849 36.4375 167.625 C32.51590564 162.64320716 28.25916766 157.68405478 23.125 153.9375 C22.568125 153.504375 22.01125 153.07125 21.4375 152.625 C21.4375 151.965 21.4375 151.305 21.4375 150.625 C20.7775 150.625 20.1175 150.625 19.4375 150.625 C18.41062178 149.6526209 17.41460348 148.64738388 16.4375 147.625 C13.84153941 145.5282626 11.14054973 143.58090394 8.4375 141.625 C7.43203125 140.87669922 7.43203125 140.87669922 6.40625 140.11328125 C-3.08503796 133.36667544 -13.82674345 128.72833485 -25.51953125 128.30859375 C-26.63134766 128.26669922 -27.74316406 128.22480469 -28.88867188 128.18164062 C-30.03916016 128.14232422 -31.18964844 128.10300781 -32.375 128.0625 C-33.54482422 128.01931641 -34.71464844 127.97613281 -35.91992188 127.93164062 C-38.80067031 127.82581721 -41.68150123 127.72373175 -44.5625 127.625 C-44.67055969 140.51497725 -43.3135534 150.53588171 -33.98828125 160.328125 C-32.78751953 161.46507812 -32.78751953 161.46507812 -31.5625 162.625 C-29.12330744 165.00470005 -26.81828379 167.28983503 -24.75 170 C-22.23746292 173.0150445 -19.45171781 175.44259257 -16.46484375 177.9765625 C-14.73991339 179.47126602 -13.07715069 180.91688926 -11.5625 182.625 C-11.5625 183.285 -11.5625 183.945 -11.5625 184.625 C-10.758125 184.893125 -9.95375 185.16125 -9.125 185.4375 C-8.279375 185.829375 -7.43375 186.22125 -6.5625 186.625 C-6.2325 187.615 -5.9025 188.605 -5.5625 189.625 C-4.9025 189.625 -4.2425 189.625 -3.5625 189.625 C-1.8752777 191.27085433 -0.21279357 192.94211953 1.4375 194.625 C4.03909417 196.86620737 6.72962468 199.00026689 9.41601562 201.13867188 C10.79213341 202.2583702 12.11955506 203.43737816 13.4375 204.625 C13.4375 205.285 13.4375 205.945 13.4375 206.625 C14.5203125 206.9653125 14.5203125 206.9653125 15.625 207.3125 C19.02318303 208.89831875 20.88980999 210.88623324 23.4375 213.625 C26.92077032 217.42707393 26.92077032 217.42707393 31.4375 219.625 C31.4375 220.285 31.4375 220.945 31.4375 221.625 C32.4275 221.955 33.4175 222.285 34.4375 222.625 C34.4375 223.285 34.4375 223.945 34.4375 224.625 C35.241875 224.893125 36.04625 225.16125 36.875 225.4375 C37.720625 225.829375 38.56625 226.22125 39.4375 226.625 C39.7675 227.615 40.0975 228.605 40.4375 229.625 C41.74441744 230.34206975 43.08399406 231.00030495 44.4375 231.625 C46.04721007 232.75499515 47.63013168 233.9238924 49.1875 235.125 C49.98671875 235.7334375 50.7859375 236.341875 51.609375 236.96875 C52.21265625 237.5153125 52.8159375 238.061875 53.4375 238.625 C53.4375 239.285 53.4375 239.945 53.4375 240.625 C54.035625 240.91375 54.63375 241.2025 55.25 241.5 C57.4375 242.625 57.4375 242.625 60.4375 244.625 C60.4375 245.285 60.4375 245.945 60.4375 246.625 C61.241875 246.893125 62.04625 247.16125 62.875 247.4375 C63.720625 247.829375 64.56625 248.22125 65.4375 248.625 C65.7675 249.615 66.0975 250.605 66.4375 251.625 C67.200625 251.91375 67.96375 252.2025 68.75 252.5 C72.08876154 253.89762111 73.24691502 255.79843873 75.4375 258.625 C76.76217746 259.3087045 78.09613633 259.97464186 79.4375 260.625 C81.12512851 262.2704378 82.7915349 263.93788577 84.4375 265.625 C85.200625 266.181875 85.96375 266.73875 86.75 267.3125 C87.306875 267.745625 87.86375 268.17875 88.4375 268.625 C88.4375 269.285 88.4375 269.945 88.4375 270.625 C88.96988281 270.84285156 89.50226563 271.06070312 90.05078125 271.28515625 C93.30285234 273.11078699 95.90419806 275.54518385 98.625 278.0625 C99.17091797 278.55298828 99.71683594 279.04347656 100.27929688 279.54882812 C102.80811365 281.87082717 104.33461602 283.31634807 105.4375 286.625 C106.76371709 287.3057132 108.09859623 287.96959256 109.4375 288.625 C111.06882271 290.07266386 112.65030208 291.57775503 114.1875 293.125 C114.98671875 293.9190625 115.7859375 294.713125 116.609375 295.53125 C118.4375 297.625 118.4375 297.625 118.4375 299.625 C119.0975 299.625 119.7575 299.625 120.4375 299.625 C122.0625 300.9375 122.0625 300.9375 123.4375 302.625 C123.4375 303.615 123.4375 304.605 123.4375 305.625 C124.0975 305.625 124.7575 305.625 125.4375 305.625 C127.33296259 307.81709211 129.11506069 310.01563006 130.875 312.3125 C131.36548828 312.93833984 131.85597656 313.56417969 132.36132812 314.20898438 C139.4375 323.32874705 139.4375 323.32874705 139.4375 326.625 C140.0975 326.625 140.7575 326.625 141.4375 326.625 C146.6317907 335.41838046 151.34715264 344.24977906 155.4375 353.625 C155.94539063 354.73101562 156.45328125 355.83703125 156.9765625 356.9765625 C158.57640961 360.97190261 159.58303874 364.87013803 160.5 369.0625 C160.82366031 370.49882387 161.14787718 371.93502244 161.47265625 373.37109375 C161.67967163 374.30973267 161.67967163 374.30973267 161.89086914 375.26733398 C162.35202365 377.25633313 162.90343826 379.22408521 163.47460938 381.18432617 C164.77839462 386.40644937 164.78036017 391.57114017 164.80859375 396.9296875 C164.81762222 398.00767609 164.8266507 399.08566467 164.83595276 400.19631958 C164.85041211 402.47395067 164.85933122 404.7516229 164.86303711 407.02929688 C164.87484549 410.45517357 164.92400214 413.87919476 164.97460938 417.3046875 C165.06617086 429.83098119 164.12495776 440.76557805 160.05804443 452.63291931 C159.13734164 455.58857269 158.53306044 458.59945042 157.88981628 461.62536621 C157.3878195 463.84463128 156.71542401 465.9072396 155.8515625 468.01171875 C155.56023437 468.72263672 155.26890625 469.43355469 154.96875 470.16601562 C154.6696875 470.87435547 154.370625 471.58269531 154.0625 472.3125 C153.77117187 473.03244141 153.47984375 473.75238281 153.1796875 474.49414062 C151.34794541 478.90076578 149.19351444 482.70253962 146.4375 486.625 C145.86 487.676875 145.2825 488.72875 144.6875 489.8125 C142.22108689 494.23025199 139.15868156 498.21524744 136.14453125 502.26953125 C134.43563039 504.49311986 134.43563039 504.49311986 133.4375 506.625 C132.7775 506.625 132.1175 506.625 131.4375 506.625 C131.4375 507.285 131.4375 507.945 131.4375 508.625 C130.7775 508.625 130.1175 508.625 129.4375 508.625 C129.210625 509.17671875 128.98375 509.7284375 128.75 510.296875 C127.05024074 513.31192417 124.88945184 515.43730369 122.4375 517.875 C121.550625 518.76703125 120.66375 519.6590625 119.75 520.578125 C117.4375 522.625 117.4375 522.625 115.4375 522.625 C115.4375 523.285 115.4375 523.945 115.4375 524.625 C113.76533424 526.16831236 112.02298462 527.63614909 110.25 529.0625 C109.28707031 529.84496094 108.32414062 530.62742187 107.33203125 531.43359375 C104.4375 533.625 104.4375 533.625 101.63671875 535.28515625 C99.3111808 536.43500757 99.3111808 536.43500757 98.4375 538.625 C97.7775 538.625 97.1175 538.625 96.4375 538.625 C96.4375 539.285 96.4375 539.945 96.4375 540.625 C93.3483651 543.97891789 89.99881409 546.79421187 86.4375 549.625 C85.84195312 550.23601563 85.24640625 550.84703125 84.6328125 551.4765625 C70.50725094 565.30051064 51.14650841 575.5668449 32.4375 581.625 C31.27347656 582.03492188 30.10945312 582.44484375 28.91015625 582.8671875 C18.28222054 586.51348474 7.58272812 588.3462387 -3.5625 589.625 C-4.38266602 589.72143799 -5.20283203 589.81787598 -6.04785156 589.91723633 C-14.25221831 590.77831145 -22.44829458 590.82296824 -30.6875 590.8125 C-31.41827759 590.81256042 -32.14905518 590.81262085 -32.90197754 590.81268311 C-43.59766542 590.8000834 -53.99031019 590.35303102 -64.5625 588.625 C-65.70847656 588.480625 -66.85445312 588.33625 -68.03515625 588.1875 C-74.45259001 587.34685371 -80.32265531 585.92844829 -86.4140625 583.74609375 C-88.62120176 582.96017692 -90.84767521 582.22747906 -93.0859375 581.53515625 C-110.09417068 576.24014026 -125.72748485 567.85273725 -139.5625 556.625 C-141.33282298 555.20769563 -143.10366074 553.79103402 -144.875 552.375 C-145.67550781 551.73046875 -146.47601563 551.0859375 -147.30078125 550.421875 C-148.78517321 549.24256532 -150.30370746 548.10476581 -151.85546875 547.015625 C-152.41878906 546.55671875 -152.98210937 546.0978125 -153.5625 545.625 C-153.5625 544.965 -153.5625 544.305 -153.5625 543.625 C-154.5525 543.295 -155.5425 542.965 -156.5625 542.625 C-156.5625 541.965 -156.5625 541.305 -156.5625 540.625 C-157.2225 540.625 -157.8825 540.625 -158.5625 540.625 C-158.5625 539.965 -158.5625 539.305 -158.5625 538.625 C-159.5525 538.295 -160.5425 537.965 -161.5625 537.625 C-163.578125 535.4375 -163.578125 535.4375 -165.8125 532.625 C-166.60785156 531.62855469 -167.40320313 530.63210938 -168.22265625 529.60546875 C-168.99480469 528.62191406 -169.76695312 527.63835938 -170.5625 526.625 C-171.51962891 525.41263672 -171.51962891 525.41263672 -172.49609375 524.17578125 C-174.19893447 522.00266826 -175.88115078 519.8147572 -177.5625 517.625 C-178.14515625 516.88894531 -178.7278125 516.15289063 -179.328125 515.39453125 C-179.87984375 514.68683594 -180.4315625 513.97914063 -181 513.25 C-181.49371094 512.62351562 -181.98742187 511.99703125 -182.49609375 511.3515625 C-183.5625 509.625 -183.5625 509.625 -183.5625 506.625 C-184.2225 506.625 -184.8825 506.625 -185.5625 506.625 C-186.70410156 505.1472168 -186.70410156 505.1472168 -187.953125 503.07421875 C-188.41291748 502.31778076 -188.87270996 501.56134277 -189.34643555 500.78198242 C-189.83023682 499.96705322 -190.31403809 499.15212402 -190.8125 498.3125 C-191.30468018 497.49177002 -191.79686035 496.67104004 -192.30395508 495.82543945 C-193.73315552 493.43087501 -195.14953236 491.02916937 -196.5625 488.625 C-196.92585449 488.01398438 -197.28920898 487.40296875 -197.66357422 486.7734375 C-203.3245733 477.21238244 -203.3245733 477.21238244 -202.5625 472.625 C-200.83984375 470.96484375 -200.83984375 470.96484375 -198.5 469.5625 C-197.74589844 469.09714844 -196.99179688 468.63179688 -196.21484375 468.15234375 C-193.62146777 466.65895641 -191.02469376 465.17165695 -188.42504883 463.68920898 C-185.25049888 461.87535878 -182.08865513 460.04168579 -178.9375 458.1875 C-177.97457031 457.63352539 -177.97457031 457.63352539 -176.9921875 457.06835938 C-172.92831718 454.66584587 -169.88102286 452.02173721 -166.5625 448.625 C-164.28125 447.18359375 -164.28125 447.18359375 -162.0625 446.0625 C-159.51779784 444.71923099 -157.42632997 443.51391392 -155.1875 441.6875 C-151.85723333 439.0708619 -148.2634552 437.25212131 -144.53125 435.265625 C-140.62974401 433.10952959 -136.92021992 430.69862324 -133.1796875 428.27734375 C-130.84371899 426.80254572 -128.4896106 425.44220415 -126.0625 424.125 C-119.67543405 420.65477103 -113.60741976 416.65494651 -107.5625 412.625 C-106.5725 412.625 -105.5825 412.625 -104.5625 412.625 C-104.5625 411.965 -104.5625 411.305 -104.5625 410.625 C-103.70914063 410.21636719 -102.85578125 409.80773437 -101.9765625 409.38671875 C-97.31487452 406.98120241 -92.98759954 404.11676019 -88.5859375 401.26953125 C-85.5625 399.625 -85.5625 399.625 -81.5625 399.625 C-81.5625 400.285 -81.5625 400.945 -81.5625 401.625 C-80.9025 401.625 -80.2425 401.625 -79.5625 401.625 C-79.23378906 402.27984375 -78.90507813 402.9346875 -78.56640625 403.609375 C-75.04542212 410.36508439 -71.0168277 416.23163696 -66.3203125 422.19140625 C-64.5625 424.625 -64.5625 424.625 -64.5625 426.625 C-63.9025 426.625 -63.2425 426.625 -62.5625 426.625 C-61.15234375 428.27734375 -61.15234375 428.27734375 -59.5 430.5625 C-48.91638504 444.5276019 -35.0963043 454.79653661 -18.5625 460.625 C-17.93512939 460.87652832 -17.30775879 461.12805664 -16.66137695 461.38720703 C-10.37049411 463.75625319 -4.56287481 464.16753359 2.125 464.125 C3.17776123 464.11855469 4.23052246 464.11210937 5.31518555 464.10546875 C13.80845059 463.90705543 23.57193607 463.52847741 29.94140625 457.109375 C31.06960058 454.86310468 31.25826675 453.14523891 31.4375 450.625 C31.53160156 449.33464844 31.62570313 448.04429687 31.72265625 446.71484375 C32.12879403 437.82193067 31.08416257 430.82018794 27.4375 422.625 C26.83475267 420.90250449 26.25003243 419.17354505 25.6875 417.4375 C25.44515625 416.70144531 25.2028125 415.96539062 24.953125 415.20703125 C24.78296875 414.68496094 24.6128125 414.16289062 24.4375 413.625 C23.7775 413.625 23.1175 413.625 22.4375 413.625 C21.31640625 412.078125 21.31640625 412.078125 20 409.875 C12.38905209 398.08911465 1.00233276 386.99753708 -9.75 378.0625 C-10.678125 377.258125 -11.60625 376.45375 -12.5625 375.625 C-12.5625 374.965 -12.5625 374.305 -12.5625 373.625 C-13.5525 373.625 -14.5425 373.625 -15.5625 373.625 C-15.5625 372.965 -15.5625 372.305 -15.5625 371.625 C-16.366875 371.2846875 -16.366875 371.2846875 -17.1875 370.9375 C-20.85538433 368.91051129 -24.00597121 366.21700523 -26.93359375 363.22265625 C-29.03129005 361.16520352 -31.28044937 359.35084921 -33.5625 357.5 C-35.03009766 356.30503906 -35.03009766 356.30503906 -36.52734375 355.0859375 C-38.47621294 353.50577329 -40.42660475 351.9274841 -42.37890625 350.3515625 C-47.87957895 345.8915576 -53.19524278 341.30742972 -58.37109375 336.47265625 C-60.39432857 334.7667916 -62.19606701 333.7561252 -64.5625 332.625 C-66.25123879 330.98070171 -67.91555515 329.31115782 -69.5625 327.625 C-70.6579848 326.7185705 -71.76215962 325.82253541 -72.875 324.9375 C-73.761875 324.174375 -74.64875 323.41125 -75.5625 322.625 C-75.5625 321.965 -75.5625 321.305 -75.5625 320.625 C-76.12453125 320.3671875 -76.6865625 320.109375 -77.265625 319.84375 C-79.82954579 318.48330223 -82.01476365 316.89711038 -84.3125 315.125 C-85.11171875 314.5165625 -85.9109375 313.908125 -86.734375 313.28125 C-87.63929687 312.46140625 -87.63929687 312.46140625 -88.5625 311.625 C-88.5625 310.965 -88.5625 310.305 -88.5625 309.625 C-89.14515625 309.37105469 -89.7278125 309.11710937 -90.328125 308.85546875 C-92.80438033 307.49179667 -94.36770626 305.98274797 -96.3125 303.9375 C-99.66608338 300.48989092 -103.14436001 297.29038932 -106.80078125 294.16796875 C-108.47122994 292.70493719 -110.08523299 291.28408448 -111.5625 289.625 C-111.5625 288.965 -111.5625 288.305 -111.5625 287.625 C-112.3978125 287.2846875 -112.3978125 287.2846875 -113.25 286.9375 C-118.38841917 284.02109993 -121.83307021 279.10031575 -125.5625 274.625 C-127.68098792 272.4507624 -129.81964364 270.31311957 -132.046875 268.25 C-144.0829599 256.787062 -153.9606548 242.30827068 -161.5625 227.625 C-162.20921739 226.42946128 -162.85637648 225.23416141 -163.50390625 224.0390625 C-180.122441 192.79653439 -182.68066008 154.68174302 -172.375 120.875 C-165.50597079 101.76922714 -153.82391443 85.88641443 -139.5625 71.625 C-138.96695313 70.84769531 -138.37140625 70.07039063 -137.7578125 69.26953125 C-135.45656337 66.49738595 -133.05604852 64.3793643 -130.25 62.125 C-129.27933594 61.34253906 -128.30867188 60.56007812 -127.30859375 59.75390625 C-125.17978686 58.10355098 -123.04857567 56.55828758 -120.8125 55.0625 C-117.4097524 52.70737636 -114.92074445 49.78036559 -112.265625 46.62890625 C-109.84062407 43.7756368 -107.30501168 41.17617366 -104.5625 38.625 C-103.9025 38.625 -103.2425 38.625 -102.5625 38.625 C-102.2325 37.635 -101.9025 36.645 -101.5625 35.625 C-100.9025 35.625 -100.2425 35.625 -99.5625 35.625 C-99.5625 34.965 -99.5625 34.305 -99.5625 33.625 C-97.26171875 31.6796875 -97.26171875 31.6796875 -94.25 29.5 C-92.77080078 28.41332031 -92.77080078 28.41332031 -91.26171875 27.3046875 C-88.5625 25.625 -88.5625 25.625 -85.5625 25.625 C-85.0675 24.14 -85.0675 24.14 -84.5625 22.625 C-82.47616323 21.20236238 -80.45409769 19.96164486 -78.25 18.75 C-77.62206543 18.39848877 -76.99413086 18.04697754 -76.34716797 17.68481445 C-70.60317154 14.53046703 -64.68860555 11.94897838 -58.5625 9.625 C-57.3559375 9.150625 -56.149375 8.67625 -54.90625 8.1875 C-36.80646064 1.49180806 -19.12489922 0.02514767 0 0 Z " fill="#125174" transform="translate(202.5625,-0.625)"/>
<path d="M0 0 C0.495 0.99 0.495 0.99 1 2 C0.22265625 3.7265625 0.22265625 3.7265625 -0.9375 5.625 C-1.618125 6.73875 -2.29875 7.8525 -3 9 C-3.66 9 -4.32 9 -5 9 C-5.2475 9.86625 -5.495 10.7325 -5.75 11.625 C-7 15 -7 15 -8.79296875 17.578125 C-11.67327531 21.79847422 -13.5735233 26.43642922 -15.5625 31.125 C-16.16010132 32.53060181 -16.16010132 32.53060181 -16.76977539 33.96459961 C-19.51790765 40.5584048 -21.65786232 46.97554965 -23 54 C-23.17499023 54.87470947 -23.34998047 55.74941895 -23.53027344 56.65063477 C-25.00093388 64.59539826 -25.33382184 72.30681573 -25.3125 80.375 C-25.32861328 81.58671875 -25.34472656 82.7984375 -25.36132812 84.046875 C-25.36806605 96.68721797 -22.48579792 108.28500465 -18.625 120.25 C-18.3465625 121.15234375 -18.068125 122.0546875 -17.78125 122.984375 C-15.7557015 129.33474327 -13.0831473 135.10129933 -10 141 C-9.48695312 142.08410156 -8.97390625 143.16820312 -8.4453125 144.28515625 C-5.63878912 150.18881934 -2.58918167 155.19828884 1.6796875 160.16015625 C3 162 3 162 3 165 C3.66 165 4.32 165 5 165 C8.4160693 167.82197029 10.2698688 171.67248873 12.375 175.5 C14.27874122 178.42883264 16.51502147 180.53555848 19 183 C21.35102497 185.48350734 23.67231375 187.99462778 26 190.5 C38.95352537 204.37667083 38.95352537 204.37667083 52.92578125 217.20703125 C55.59272631 219.51235664 58.16594809 221.91543559 60.75 224.3125 C65.78660807 228.97180399 70.98695696 233.38122485 76.30859375 237.7109375 C79 240 79 240 81.66015625 242.6640625 C83.9667749 245.11889767 83.9667749 245.11889767 87 247 C87 247.66 87 248.32 87 249 C87.804375 249.268125 88.60875 249.53625 89.4375 249.8125 C90.283125 250.204375 91.12875 250.59625 92 251 C92.33 251.99 92.66 252.98 93 254 C94.76591887 255.00916033 94.76591887 255.00916033 97 256 C101.24285778 258.61793352 104.48876129 261.48876129 108 265 C110.1136384 266.60004402 112.25464206 268.14696735 114.42578125 269.66796875 C114.94527344 270.10753906 115.46476563 270.54710937 116 271 C116 271.66 116 272.32 116 273 C116.58394531 273.26425781 117.16789063 273.52851563 117.76953125 273.80078125 C120.08541027 275.04592111 121.75234379 276.41462104 123.6875 278.1875 C126.37712108 280.60176682 129.09554771 282.85081637 132 285 C139.4867512 290.76299749 146.20245903 297.45526014 153 304 C153.71220703 304.68352539 154.42441406 305.36705078 155.15820312 306.07128906 C157.2408723 308.07882999 159.31026524 310.09903251 161.375 312.125 C162.01131348 312.73988281 162.64762695 313.35476563 163.30322266 313.98828125 C166.45643462 317.11817448 168.75679825 319.6073538 170 324 C170.66 324 171.32 324 172 324 C177.86876406 330.50555077 180.36264852 338.82526116 183 347 C183.33 347.99 183.66 348.98 184 350 C184.97013924 360.15752802 185.98077047 371.79753709 180.046875 380.54296875 C165.69772561 397.7674248 165.69772561 397.7674248 159 400 C158.67 400.66 158.34 401.32 158 402 C155.125 403.6875 155.125 403.6875 152 405 C151.01 404.67 150.02 404.34 149 404 C149.495 403.030625 149.99 402.06125 150.5 401.0625 C154.52671386 390.23468569 152.54972751 378.22465646 148 368 C147.39725267 366.27750449 146.81253243 364.54854505 146.25 362.8125 C146.00765625 362.07644531 145.7653125 361.34039062 145.515625 360.58203125 C145.34546875 360.05996094 145.1753125 359.53789062 145 359 C144.34 359 143.68 359 143 359 C141.87890625 357.453125 141.87890625 357.453125 140.5625 355.25 C132.95155209 343.46411465 121.56483276 332.37253708 110.8125 323.4375 C109.884375 322.633125 108.95625 321.82875 108 321 C108 320.34 108 319.68 108 319 C107.01 319 106.02 319 105 319 C105 318.34 105 317.68 105 317 C104.195625 316.6596875 104.195625 316.6596875 103.375 316.3125 C99.70711567 314.28551129 96.55652879 311.59200523 93.62890625 308.59765625 C91.53120995 306.54020352 89.28205063 304.72584921 87 302.875 C85.53240234 301.68003906 85.53240234 301.68003906 84.03515625 300.4609375 C82.08628706 298.88077329 80.13589525 297.3024841 78.18359375 295.7265625 C72.68292105 291.2665576 67.36725722 286.68242972 62.19140625 281.84765625 C60.16817143 280.1417916 58.36643299 279.1311252 56 278 C54.31126121 276.35570171 52.64694485 274.68615782 51 273 C49.9045152 272.0935705 48.80034038 271.19753541 47.6875 270.3125 C46.800625 269.549375 45.91375 268.78625 45 268 C45 267.34 45 266.68 45 266 C44.43796875 265.7421875 43.8759375 265.484375 43.296875 265.21875 C40.73295421 263.85830223 38.54773635 262.27211038 36.25 260.5 C35.45078125 259.8915625 34.6515625 259.283125 33.828125 258.65625 C32.92320313 257.83640625 32.92320313 257.83640625 32 257 C32 256.34 32 255.68 32 255 C31.41734375 254.74605469 30.8346875 254.49210938 30.234375 254.23046875 C27.75811967 252.86679667 26.19479374 251.35774797 24.25 249.3125 C20.89641662 245.86489092 17.41813999 242.66538932 13.76171875 239.54296875 C12.09127006 238.07993719 10.47726701 236.65908448 9 235 C9 234.34 9 233.68 9 233 C8.1646875 232.6596875 8.1646875 232.6596875 7.3125 232.3125 C2.17408083 229.39609993 -1.27057021 224.47531575 -5 220 C-7.11848792 217.8257624 -9.25714364 215.68811957 -11.484375 213.625 C-23.5204599 202.162062 -33.3981548 187.68327068 -41 173 C-41.64671739 171.80446128 -42.29387648 170.60916141 -42.94140625 169.4140625 C-59.559941 138.17153439 -62.11816008 100.05674302 -51.8125 66.25 C-44.94347079 47.14422714 -33.26141443 31.26141443 -19 17 C-18.40832031 16.22527344 -17.81664062 15.45054688 -17.20703125 14.65234375 C-14.85311666 11.82348002 -12.37185036 9.67090235 -9.5 7.375 C-8.5615625 6.61960937 -7.623125 5.86421875 -6.65625 5.0859375 C-4.45825431 3.35986442 -2.2457694 1.66314054 0 0 Z " fill="#FCD604" transform="translate(82,54)"/>
<path d="M0 0 C2.75035217 3.43794021 4.8662016 7.16513154 7 11 C7.45117188 11.78632813 7.90234375 12.57265625 8.3671875 13.3828125 C8.82351562 14.18460937 9.27984375 14.98640625 9.75 15.8125 C10.17796875 16.56144531 10.6059375 17.31039063 11.046875 18.08203125 C12 20 12 20 12 22 C12.66 22 13.32 22 14 22 C14.268125 22.52207031 14.53625 23.04414063 14.8125 23.58203125 C17.88481684 29.35273162 21.4683161 34.51381284 25.42578125 39.71484375 C27 42 27 42 27 44 C27.598125 44.226875 28.19625 44.45375 28.8125 44.6875 C31.59832728 46.35899637 32.37537232 48.2056404 34 51 C35.62339805 52.70884005 37.29319053 54.37446717 39 56 C40.7041054 57.62836738 42.38025441 59.28769752 44 61 C44 61.66 44 62.32 44 63 C44.55558594 63.23460937 45.11117187 63.46921875 45.68359375 63.7109375 C48.57661572 65.32088227 50.66392192 67.34299493 53.0625 69.625 C65.74854101 81.38341397 80.78219806 91.20602519 97.140625 96.984375 C99.75381395 97.91255687 102.23432195 98.96258324 104.75 100.125 C112.88022977 103.79798795 120.9595044 105.70717813 129.75 107.125 C131.76569418 107.46052216 133.78132163 107.79644551 135.796875 108.1328125 C136.67698242 108.27605957 137.55708984 108.41930664 138.46386719 108.56689453 C140.10313048 108.84683803 141.73707064 109.1610394 143.36174011 109.51600647 C145.88276425 109.97849289 148.18933417 110.14547599 150.74829102 110.17700195 C151.66437637 110.18983719 152.58046173 110.20267242 153.52430725 110.21589661 C154.50757492 110.22328354 155.49084259 110.23067047 156.50390625 110.23828125 C157.53700424 110.246353 158.57010223 110.25442474 159.63450623 110.26274109 C161.82752824 110.27656389 164.0205716 110.2872941 166.21362305 110.29516602 C168.419418 110.30658334 170.62518764 110.32686815 172.83081055 110.35668945 C186.70862752 110.54401539 199.52919539 109.70957402 213.03921509 106.45075989 C215.71539391 105.8355399 218.41028787 105.40672263 221.125 105 C225.56797004 104.2155381 229.48760196 102.76606947 233.625 100.98828125 C235.7781283 100.0923249 237.89026063 99.40603144 240.125 98.75 C248.36256445 96.09797835 256.82078709 91.78614194 264 87 C266.1875 87.375 266.1875 87.375 268 88 C267.34 88 266.68 88 266 88 C266 88.66 266 89.32 266 90 C262.9108651 93.35391789 259.56131409 96.16921187 256 99 C255.40445312 99.61101562 254.80890625 100.22203125 254.1953125 100.8515625 C240.06975094 114.67551064 220.70900841 124.9418449 202 131 C200.83597656 131.40992188 199.67195312 131.81984375 198.47265625 132.2421875 C187.84472054 135.88848474 177.14522812 137.7212387 166 139 C165.17983398 139.09643799 164.35966797 139.19287598 163.51464844 139.29223633 C155.31028169 140.15331145 147.11420542 140.19796824 138.875 140.1875 C138.14422241 140.18756042 137.41344482 140.18762085 136.66052246 140.18768311 C125.96483458 140.1750834 115.57218981 139.72803102 105 138 C103.85402344 137.855625 102.70804688 137.71125 101.52734375 137.5625 C95.10990999 136.72185371 89.23984469 135.30344829 83.1484375 133.12109375 C80.94129824 132.33517692 78.71482479 131.60247906 76.4765625 130.91015625 C59.46832932 125.61514026 43.83501515 117.22773725 30 106 C28.22967702 104.58269563 26.45883926 103.16603402 24.6875 101.75 C23.88699219 101.10546875 23.08648437 100.4609375 22.26171875 99.796875 C20.77732679 98.61756532 19.25879254 97.47976581 17.70703125 96.390625 C17.14371094 95.93171875 16.58039062 95.4728125 16 95 C16 94.34 16 93.68 16 93 C15.01 92.67 14.02 92.34 13 92 C13 91.34 13 90.68 13 90 C12.34 90 11.68 90 11 90 C11 89.34 11 88.68 11 88 C10.01 87.67 9.02 87.34 8 87 C5.984375 84.8125 5.984375 84.8125 3.75 82 C2.95464844 81.00355469 2.15929688 80.00710938 1.33984375 78.98046875 C0.18162109 77.50513672 0.18162109 77.50513672 -1 76 C-1.63808594 75.19175781 -2.27617187 74.38351562 -2.93359375 73.55078125 C-4.63643447 71.37766826 -6.31865078 69.1897572 -8 67 C-8.87398437 65.89591797 -8.87398437 65.89591797 -9.765625 64.76953125 C-10.31734375 64.06183594 -10.8690625 63.35414063 -11.4375 62.625 C-11.93121094 61.99851562 -12.42492187 61.37203125 -12.93359375 60.7265625 C-14 59 -14 59 -14 56 C-14.66 56 -15.32 56 -16 56 C-17.14160156 54.5222168 -17.14160156 54.5222168 -18.390625 52.44921875 C-19.08031372 51.31456177 -19.08031372 51.31456177 -19.78393555 50.15698242 C-20.26773682 49.34205322 -20.75153809 48.52712402 -21.25 47.6875 C-21.74218018 46.86677002 -22.23436035 46.04604004 -22.74145508 45.20043945 C-24.17065552 42.80587501 -25.58703236 40.40416937 -27 38 C-27.54503174 37.08347656 -27.54503174 37.08347656 -28.10107422 36.1484375 C-33.7620733 26.58738244 -33.7620733 26.58738244 -33 22 C-31.27734375 20.33984375 -31.27734375 20.33984375 -28.9375 18.9375 C-28.18339844 18.47214844 -27.42929687 18.00679688 -26.65234375 17.52734375 C-24.06353107 16.03658416 -21.47088984 14.55268382 -18.87573242 13.07299805 C-15.63244652 11.21770174 -12.40549722 9.33627846 -9.1875 7.4375 C-8.52041016 7.05142578 -7.85332031 6.66535156 -7.16601562 6.26757812 C-3.9951424 4.38937168 -2.07433461 3.11150192 0 0 Z " fill="#FCD603" transform="translate(33,450)"/>
<path d="M0 0 C2.95439394 2.17947094 5.68757833 4.54610126 8.35546875 7.06640625 C10.1903616 8.62085696 11.95824911 9.59964897 14.14453125 10.58203125 C14.14453125 11.24203125 14.14453125 11.90203125 14.14453125 12.58203125 C14.68851562 12.80246094 15.2325 13.02289063 15.79296875 13.25 C18.90766528 15.01430485 21.26754355 17.37581903 23.76953125 19.89453125 C24.259375 20.36826172 24.74921875 20.84199219 25.25390625 21.33007812 C28.16526026 24.23745488 29.77801884 26.72846625 31.14453125 30.58203125 C31.76328125 30.89140625 32.38203125 31.20078125 33.01953125 31.51953125 C36.19448648 33.10700886 37.3902391 35.57467329 39.14453125 38.58203125 C39.14453125 39.24203125 39.14453125 39.90203125 39.14453125 40.58203125 C39.80453125 40.58203125 40.46453125 40.58203125 41.14453125 40.58203125 C42.13453125 43.05703125 42.13453125 43.05703125 43.14453125 45.58203125 C35.75099928 52.56541108 28.37206434 59.41479776 20.3515625 65.6796875 C18.08577565 67.49231216 18.08577565 67.49231216 16.5 69.796875 C15.14453125 71.58203125 15.14453125 71.58203125 12.64453125 72.08203125 C10.14453125 71.58203125 10.14453125 71.58203125 8.33203125 69.70703125 C7.14453125 67.58203125 7.14453125 67.58203125 7.14453125 65.58203125 C6.54640625 65.35515625 5.94828125 65.12828125 5.33203125 64.89453125 C2.52210674 63.20857654 1.78359349 61.41886974 0.14453125 58.58203125 C-3.77706311 53.60023841 -8.03380109 48.64108603 -13.16796875 44.89453125 C-13.72484375 44.46140625 -14.28171875 44.02828125 -14.85546875 43.58203125 C-14.85546875 42.92203125 -14.85546875 42.26203125 -14.85546875 41.58203125 C-15.51546875 41.58203125 -16.17546875 41.58203125 -16.85546875 41.58203125 C-17.88234697 40.60965215 -18.87836527 39.60441513 -19.85546875 38.58203125 C-22.45142934 36.48529385 -25.15241902 34.53793519 -27.85546875 32.58203125 C-28.52578125 32.08316406 -29.19609375 31.58429688 -29.88671875 31.0703125 C-39.37800671 24.32370669 -50.1197122 19.6853661 -61.8125 19.265625 C-62.92431641 19.22373047 -64.03613281 19.18183594 -65.18164062 19.13867188 C-66.33212891 19.09935547 -67.48261719 19.06003906 -68.66796875 19.01953125 C-69.83779297 18.97634766 -71.00761719 18.93316406 -72.21289062 18.88867188 C-75.09363906 18.78284846 -77.97446998 18.680763 -80.85546875 18.58203125 C-81.18546875 20.89203125 -81.51546875 23.20203125 -81.85546875 25.58203125 C-83.03961169 22.02960243 -82.55082407 20.88372563 -81.41796875 17.39453125 C-81.13050781 16.49347656 -80.84304687 15.59242187 -80.546875 14.6640625 C-80.31871094 13.97699219 -80.09054688 13.28992188 -79.85546875 12.58203125 C-79.19546875 12.58203125 -78.53546875 12.58203125 -77.85546875 12.58203125 C-77.943125 11.855 -78.03078125 11.12796875 -78.12109375 10.37890625 C-77.76207327 6.59863176 -76.31093464 5.43276943 -73.60546875 2.83203125 C-72.8165625 2.0534375 -72.02765625 1.27484375 -71.21484375 0.47265625 C-68.89242336 -1.38835611 -67.64556429 -1.75130875 -64.85546875 -2.41796875 C-64.52546875 -3.40796875 -64.19546875 -4.39796875 -63.85546875 -5.41796875 C-44.81950857 -16.98948564 -17.66541936 -11.40578183 0 0 Z " fill="#FCD706" transform="translate(238.85546875,108.41796875)"/>
<path d="M0 0 C0.598125 0.20625 1.19625 0.4125 1.8125 0.625 C1.1525 0.625 0.4925 0.625 -0.1875 0.625 C-0.1875 1.285 -0.1875 1.945 -0.1875 2.625 C-3.2766349 5.97891789 -6.62618591 8.79421187 -10.1875 11.625 C-10.77402344 12.23085938 -11.36054688 12.83671875 -11.96484375 13.4609375 C-14.54295699 15.97108642 -17.29382921 18.04980071 -20.1875 20.1875 C-21.21875 20.95191406 -22.25 21.71632813 -23.3125 22.50390625 C-24.26125 23.20386719 -25.21 23.90382813 -26.1875 24.625 C-26.93 25.21152344 -27.6725 25.79804687 -28.4375 26.40234375 C-30.1875 27.625 -30.1875 27.625 -32.1875 27.625 C-31.81625 26.51125 -31.81625 26.51125 -31.4375 25.375 C-30.89165642 22.53760911 -30.89165642 22.53760911 -32.75 20.25 C-35.04786566 18.34027212 -35.04786566 18.34027212 -37.6640625 18.90234375 C-38.82679688 19.14082031 -39.98953125 19.37929688 -41.1875 19.625 C-42.88090531 19.92916952 -44.57498345 20.22960492 -46.26953125 20.52734375 C-48.17977685 20.87190083 -50.08993081 21.2169663 -52 21.5625 C-52.94681641 21.73201172 -53.89363281 21.90152344 -54.86914062 22.07617188 C-55.80564453 22.24568359 -56.74214844 22.41519531 -57.70703125 22.58984375 C-58.54339111 22.7405835 -59.37975098 22.89132324 -60.24145508 23.04663086 C-61.89336926 23.37093555 -63.54272125 23.71448159 -65.1751709 24.1257019 C-70.97476911 25.55661515 -76.4062625 25.91790239 -82.3671875 25.890625 C-83.76905807 25.89349518 -83.76905807 25.89349518 -85.19924927 25.89642334 C-87.15724968 25.89777489 -89.11525937 25.8941511 -91.07324219 25.88574219 C-94.07507179 25.87495482 -97.07631286 25.88570966 -100.078125 25.8984375 C-101.98698049 25.89711714 -103.89583561 25.89455732 -105.8046875 25.890625 C-106.70154266 25.89467346 -107.59839783 25.89872192 -108.52243042 25.90289307 C-109.76985519 25.89343658 -109.76985519 25.89343658 -111.04248047 25.88378906 C-111.77256317 25.88219788 -112.50264587 25.88060669 -113.25485229 25.87896729 C-115.1875 25.625 -115.1875 25.625 -118.1875 23.625 C-116.8684668 23.6156543 -115.54943359 23.60630859 -114.19042969 23.59667969 C-109.1951583 23.55615546 -104.20046342 23.49023989 -99.20556641 23.41748047 C-97.06273933 23.3896266 -94.91981629 23.36823955 -92.77685547 23.35400391 C-79.15064944 23.25817967 -66.43444969 22.19928811 -53.15936279 19.06871033 C-50.47819054 18.46539055 -47.77924334 18.03417806 -45.0625 17.625 C-40.61952996 16.8405381 -36.69989804 15.39106947 -32.5625 13.61328125 C-30.4093717 12.7173249 -28.29723937 12.03103144 -26.0625 11.375 C-19.19994507 9.16565228 -6.30260024 -1.08044576 0 0 Z " fill="#F4D621" transform="translate(299.1875,537.375)"/>
<path d="M0 0 C0.94875 0.04125 1.8975 0.0825 2.875 0.125 C-10.04389146 13.04389146 -37.88685875 16.20984602 -55.125 18.125 C-55.93936523 18.21998779 -56.75373047 18.31497559 -57.59277344 18.4128418 C-65.8035848 19.27548307 -74.00428207 19.32297652 -82.25 19.3125 C-83.34616638 19.31259064 -83.34616638 19.31259064 -84.46447754 19.31268311 C-95.16016542 19.3000834 -105.55281019 18.85303102 -116.125 17.125 C-117.27097656 16.980625 -118.41695312 16.83625 -119.59765625 16.6875 C-137.96904441 14.28095559 -137.96904441 14.28095559 -143.125 9.125 C-141.02021396 9.23909682 -138.91615423 9.36665361 -136.8125 9.5 C-135.64074219 9.56960938 -134.46898437 9.63921875 -133.26171875 9.7109375 C-130.125 10.125 -130.125 10.125 -127.125 12.125 C-127.125 12.785 -127.125 13.445 -127.125 14.125 C-123.165 14.125 -119.205 14.125 -115.125 14.125 C-115.125 14.785 -115.125 15.445 -115.125 16.125 C-107.05838522 16.01764792 -98.99186844 15.90504548 -90.92542362 15.78566074 C-87.18021202 15.73039769 -83.43499266 15.67697245 -79.68969727 15.62768555 C-76.07811414 15.58009165 -72.46662868 15.52775094 -68.85516167 15.47205925 C-67.47442481 15.45161306 -66.09366114 15.43290378 -64.71287727 15.41592598 C-62.78516686 15.3919322 -60.85754251 15.36129736 -58.92993164 15.33032227 C-57.28112755 15.30700584 -57.28112755 15.30700584 -55.59901428 15.28321838 C-53.18193927 15.40211808 -53.18193927 15.40211808 -52.125 14.125 C-48.89340481 13.8374428 -45.66152278 13.67614997 -42.421875 13.50390625 C-39.25793384 13.14027794 -37.01365648 12.40342567 -34.125 11.125 C-32.19085241 10.6414631 -30.25625866 10.15933555 -28.31640625 9.69921875 C-25.18387674 8.87839551 -22.15332696 7.80061424 -19.10546875 6.7109375 C-17.125 6.125 -17.125 6.125 -14.125 6.125 C-14.125 5.465 -14.125 4.805 -14.125 4.125 C-13.49851563 4.00382813 -12.87203125 3.88265625 -12.2265625 3.7578125 C-11.00066406 3.50644531 -11.00066406 3.50644531 -9.75 3.25 C-8.53183594 3.00636719 -8.53183594 3.00636719 -7.2890625 2.7578125 C-3.9465342 1.78039448 -3.75737728 0.15029509 0 0 Z " fill="#F8DE47" transform="translate(254.125,570.875)"/>
<path d="M0 0 C-2.77958234 2.77958234 -5.82510295 2.87880707 -9.5625 3.5 C-10.93908905 3.73792897 -12.31539081 3.9775258 -13.69140625 4.21875 C-14.69402748 4.39141388 -14.69402748 4.39141388 -15.71690369 4.56756592 C-17.88325162 4.97788706 -19.99522692 5.4953126 -22.13305664 6.03222656 C-27.17791148 7.15839239 -32.02682504 7.28920467 -37.1796875 7.265625 C-38.58155807 7.26849518 -38.58155807 7.26849518 -40.01174927 7.27142334 C-41.96974968 7.27277489 -43.92775937 7.2691511 -45.88574219 7.26074219 C-48.88757179 7.24995482 -51.88881286 7.26070966 -54.890625 7.2734375 C-56.79948049 7.27211714 -58.70833561 7.26955732 -60.6171875 7.265625 C-61.96247025 7.27169769 -61.96247025 7.27169769 -63.33493042 7.27789307 C-64.58235519 7.26843658 -64.58235519 7.26843658 -65.85498047 7.25878906 C-66.58506317 7.25719788 -67.31514587 7.25560669 -68.06735229 7.25396729 C-70 7 -70 7 -73 5 C-71.6809668 4.9906543 -70.36193359 4.98130859 -69.00292969 4.97167969 C-64.0076583 4.93115546 -59.01296342 4.86523989 -54.01806641 4.79248047 C-51.87523933 4.7646266 -49.73231629 4.74323955 -47.58935547 4.72900391 C-34.70673516 4.63840883 -22.65342322 3.79135428 -10.09082031 0.84863281 C-6.67274606 0.06532823 -3.52044123 -0.17553058 0 0 Z " fill="#D3C734" transform="translate(254,556)"/>
<path d="M0 0 C0.33 0.66 0.66 1.32 1 2 C0.22265625 3.7265625 0.22265625 3.7265625 -0.9375 5.625 C-1.618125 6.73875 -2.29875 7.8525 -3 9 C-3.66 9 -4.32 9 -5 9 C-5.2475 9.86625 -5.495 10.7325 -5.75 11.625 C-7.07228895 15.19518017 -8.74454932 17.94422811 -11 21 C-11.33 21 -11.66 21 -12 21 C-12 19.02 -12 17.04 -12 15 C-12.99 15 -13.98 15 -15 15 C-15.12375 15.61875 -15.2475 16.2375 -15.375 16.875 C-16 19 -16 19 -18 21 C-20.625 21.625 -20.625 21.625 -23 22 C-20.91351699 15.74055096 -14.21878789 11.48530186 -9.3125 7.25 C-8.63638672 6.66089844 -7.96027344 6.07179688 -7.26367188 5.46484375 C-6.61591797 4.90410156 -5.96816406 4.34335937 -5.30078125 3.765625 C-4.71466064 3.25805664 -4.12854004 2.75048828 -3.5246582 2.22753906 C-2 1 -2 1 0 0 Z " fill="#EBCE1D" transform="translate(82,54)"/>
<path d="M0 0 C0.33 0 0.66 0 1 0 C1.66 4.62 2.32 9.24 3 14 C3.66 14 4.32 14 5 14 C5.33 19.61 5.66 25.22 6 31 C7.98 31.99 9.96 32.98 12 34 C9.01581671 37.32851213 6.15437231 39.3205729 2 41 C1.01 40.67 0.02 40.34 -1 40 C-0.2575 38.5459375 -0.2575 38.5459375 0.5 37.0625 C3.74393755 28.33956746 3.27694421 17.26731862 -0.125 8.6875 C-0.51945313 7.86636719 -0.91390625 7.04523438 -1.3203125 6.19921875 C-2 4 -2 4 -1.1171875 1.70703125 C-0.74851563 1.14371094 -0.37984375 0.58039063 0 0 Z " fill="#F8DF45" transform="translate(232,418)"/>
<path d="M0 0 C6.48718234 2.42372492 12.78808915 5.34978185 18.61914062 9.10424805 C16.63914062 10.09424805 16.63914062 10.09424805 14.61914062 11.10424805 C14.24789062 10.62987305 13.87664062 10.15549805 13.49414062 9.66674805 C11.6233044 7.83870676 11.6233044 7.83870676 8.55664062 7.60424805 C7.58726562 7.43924805 6.61789063 7.27424805 5.61914062 7.10424805 C4.95914063 6.11424805 4.29914063 5.12424805 3.61914062 4.10424805 C0.0514451 3.36818306 0.0514451 3.36818306 -3.38085938 3.10424805 C-3.38085938 2.44424805 -3.38085938 1.78424805 -3.38085938 1.10424805 C-14.60085937 1.10424805 -25.82085937 1.10424805 -37.38085938 1.10424805 C-27.84438742 -5.25339992 -10.57559044 -3.42427015 0 0 Z " fill="#DAC825" transform="translate(221.380859375,99.895751953125)"/>
<path d="M0 0 C0.94875 0.04125 1.8975 0.0825 2.875 0.125 C-8.46434348 11.46434348 -33.78195763 16.07419522 -49.125 16.125 C-45.96803669 14.45285021 -42.94174395 13.51564726 -39.4609375 12.6875 C-32.52983426 11.01847179 -25.71167742 9.0816215 -19 6.67578125 C-17.125 6.125 -17.125 6.125 -14.125 6.125 C-14.125 5.465 -14.125 4.805 -14.125 4.125 C-13.49851563 4.00382813 -12.87203125 3.88265625 -12.2265625 3.7578125 C-11.40929687 3.59023438 -10.59203125 3.42265625 -9.75 3.25 C-8.93789062 3.08757813 -8.12578125 2.92515625 -7.2890625 2.7578125 C-3.9465342 1.78039448 -3.75737728 0.15029509 0 0 Z " fill="#F6E25D" transform="translate(254.125,570.875)"/>
<path d="M0 0 C0.19627391 1.58226965 0.38165538 3.16589271 0.5625 4.75 C0.66691406 5.63171875 0.77132812 6.5134375 0.87890625 7.421875 C0.99456676 9.88432451 0.73638695 11.66538064 0 14 C-0.66 14 -1.32 14 -2 14 C-2.33 14.66 -2.66 15.32 -3 16 C-6.55007718 12.0949151 -7.81819916 9.02265357 -9 4 C-4.5 0 -4.5 0 0 0 Z " fill="#13516C" transform="translate(43,446)"/>
<path d="M0 0 C1.125 5.625 1.125 5.625 0 9 C1.423125 9.433125 1.423125 9.433125 2.875 9.875 C6 11 6 11 8 13 C8.63421875 13.12246094 9.2684375 13.24492188 9.921875 13.37109375 C12.75844759 14.22953019 13.57395715 15.66271137 15.25 18.0625 C15.77078125 18.79597656 16.2915625 19.52945313 16.828125 20.28515625 C17.21484375 20.85105469 17.6015625 21.41695312 18 22 C7.60857547 16.99672152 -1.53511174 9.76150213 -10 2 C-6.48375245 0.05841983 -4.0284349 -0.18311068 0 0 Z " fill="#1E5565" transform="translate(93,516)"/>
<path d="M0 0 C4.20320934 3.70954381 6.01455041 6.81722885 7.75 12.125 C8.15734375 13.34445312 8.5646875 14.56390625 8.984375 15.8203125 C9.31953125 16.86960937 9.6546875 17.91890625 10 19 C10.33 19.99 10.66 20.98 11 22 C12.13313828 33.86415659 12.78637472 45.31337907 5 55 C4.67 53.68 4.34 52.36 4 51 C4.66 51 5.32 51 6 51 C6.185625 49.88625 6.185625 49.88625 6.375 48.75 C7 46 7 46 8.01953125 44.30859375 C9.41606294 41.02034584 9.3386027 37.82575996 9.3125 34.3125 C9.31121094 33.59787598 9.30992187 32.88325195 9.30859375 32.14697266 C9.22101633 27.32474117 8.50411924 23.33108509 6.66796875 18.83984375 C5.71198845 16.20670504 5.7873775 13.76409255 6 11 C5.34 11 4.68 11 4 11 C4 9.68 4 8.36 4 7 C3.01 7 2.02 7 1 7 C0.67 4.69 0.34 2.38 0 0 Z " fill="#DFCE2A" transform="translate(255,382)"/>
<path d="M0 0 C4.75 0.875 4.75 0.875 7 2 C7 2.66 7 3.32 7 4 C8.0725 4.0825 9.145 4.165 10.25 4.25 C14.55586161 5.11117232 15.01194469 6.01194469 18 9 C21.26420359 10.52605397 24.60965622 11.78361712 28 13 C28 13.66 28 14.32 28 15 C28.60328125 15.10957031 29.2065625 15.21914063 29.828125 15.33203125 C37.76625659 16.90685413 37.76625659 16.90685413 41 20 C35.33712459 19.49830561 30.63336482 18.36856777 25.4375 16 C24.75929199 15.69674805 24.08108398 15.39349609 23.38232422 15.08105469 C18.30117197 12.74421785 13.43273719 10.10424554 8.625 7.25 C7.98876709 6.87359375 7.35253418 6.4971875 6.69702148 6.109375 C3.6972552 4.26917878 1.98262583 2.97393874 0 0 Z " fill="#F8E361" transform="translate(70,560)"/>
<path d="M0 0 C1.9375 0.3125 1.9375 0.3125 4 1 C4.33 1.99 4.66 2.98 5 4 C5.9793879 5.02019573 6.97895449 6.02149805 8 7 C8.33 7.66 8.66 8.32 9 9 C9.5775 8.814375 10.155 8.62875 10.75 8.4375 C13.20692525 7.95976454 14.64397534 8.24270636 17 9 C17 8.01 17 7.02 17 6 C18.32 6 19.64 6 21 6 C20.34 4.68 19.68 3.36 19 2 C21.31 2 23.62 2 26 2 C22.83741823 5.88545761 19.59805717 9.50188886 16 13 C15.67 13.33 15.34 13.66 15 14 C12.625 14.3125 12.625 14.3125 10 14 C8.02389614 11.95575462 7 10.8823175 7 8 C6.401875 7.79375 5.80375 7.5875 5.1875 7.375 C2.18981233 5.49073918 1.38638224 3.18867916 0 0 Z " fill="#F6DD4A" transform="translate(239,166)"/>
<path d="M0 0 C1.38315373 3.86698613 0.73006194 7.18828925 0.125 11.1875 C-0.05804688 12.43917969 -0.24109375 13.69085938 -0.4296875 14.98046875 C-1 18 -1 18 -2 19 C-2.20837419 20.82906235 -2.36749659 22.66388134 -2.5 24.5 C-2.88888889 29.88888889 -2.88888889 29.88888889 -4 31 C-4.15786308 32.85174706 -4.25107356 34.7090911 -4.31640625 36.56640625 C-4.35830078 37.69111328 -4.40019531 38.81582031 -4.44335938 39.97460938 C-4.48267578 41.15861328 -4.52199219 42.34261719 -4.5625 43.5625 C-4.60568359 44.75037109 -4.64886719 45.93824219 -4.69335938 47.16210938 C-4.79983546 50.10794784 -4.90184841 53.0538743 -5 56 C-5.33 56 -5.66 56 -6 56 C-6.61950062 24.66279962 -6.61950062 24.66279962 -3 11 C-2.57074219 9.31777344 -2.57074219 9.31777344 -2.1328125 7.6015625 C-1.45914523 5.05445862 -0.7540581 2.52422287 0 0 Z " fill="#466841" transform="translate(62,93)"/>
<path d="M0 0 C0.6875 1.6875 0.6875 1.6875 1 4 C-0.3125 6.5 -0.3125 6.5 -2 9 C-2.68096422 10.32608822 -3.35330586 11.65686601 -4 13 C-4.66 13 -5.32 13 -6 13 C-6.0825 14.11375 -6.165 15.2275 -6.25 16.375 C-7.16461882 23.74421447 -10.57271087 30.48815065 -14 37 C-16.37710424 30.97501253 -12.36336225 23.67285894 -10 18 C-7.08294268 11.78907491 -3.80652986 5.70979479 0 0 Z " fill="#F8E463" transform="translate(43,95)"/>
<path d="M0 0 C0.33 0 0.66 0 1 0 C0.979375 0.886875 0.95875 1.77375 0.9375 2.6875 C0.99307942 5.63320921 1.38087812 8.13656132 2 11 C2 11.99 2 12.98 2 14 C0.68 13.67 -0.64 13.34 -2 13 C-2 15.64 -2 18.28 -2 21 C-3.65 21.33 -5.3 21.66 -7 22 C-6.7177641 13.67404102 -3.72731977 7.37484982 0 0 Z " fill="#155074" transform="translate(70,75)"/>
<path d="M0 0 C2.0625 0.4375 2.0625 0.4375 4 1 C3.34 1 2.68 1 2 1 C2 1.66 2 2.32 2 3 C-0.43239346 5.64088432 -2.93986123 7.95216235 -5.75 10.1875 C-8.07487388 11.80309077 -8.07487388 11.80309077 -9 14 C-9.66 13.67 -10.32 13.34 -11 13 C-10.67 11.68 -10.34 10.36 -10 9 C-12.31 9.33 -14.62 9.66 -17 10 C-13.81330213 7.42286419 -10.4949122 5.66014014 -6.8125 3.875 C-3.16607382 2.29727124 -3.16607382 2.29727124 0 0 Z " fill="#E8D331" transform="translate(297,537)"/>
<path d="M0 0 C2.64 0.66 5.28 1.32 8 2 C8 3.32 8 4.64 8 6 C9.32 6 10.64 6 12 6 C12 6.99 12 7.98 12 9 C12.33 8.34 12.66 7.68 13 7 C13.99 7 14.98 7 16 7 C16 8.98 16 10.96 16 13 C16.99 13 17.98 13 19 13 C18.67 14.32 18.34 15.64 18 17 C17.443125 16.50371094 16.88625 16.00742187 16.3125 15.49609375 C15.549375 14.81675781 14.78625 14.13742187 14 13.4375 C13.1853125 12.71175781 12.370625 11.98601562 11.53125 11.23828125 C8.5579964 8.60915422 5.55058136 6.02132933 2.53125 3.4453125 C1 2 1 2 0 0 Z " fill="#255758" transform="translate(204,330)"/>
<path d="M0 0 C2.10478604 0.11409682 4.20884577 0.24165361 6.3125 0.375 C7.48425781 0.44460938 8.65601562 0.51421875 9.86328125 0.5859375 C13 1 13 1 16 3 C16 3.66 16 4.32 16 5 C19.96 5 23.92 5 28 5 C28 5.66 28 6.32 28 7 C29.65 7 31.3 7 33 7 C33 7.33 33 7.66 33 8 C30.87346042 7.75990682 28.74702432 7.51886474 26.62109375 7.2734375 C24.94978986 7.09908389 23.27483144 6.95519284 21.59765625 6.8515625 C14.48623201 6.36747852 5.20842994 5.20842994 0 0 Z " fill="#F8E05C" transform="translate(111,580)"/>
<path d="M0 0 C2.97 0.99 5.94 1.98 9 3 C9.33 4.65 9.66 6.3 10 8 C10.86625 8.061875 10.86625 8.061875 11.75 8.125 C15.14792966 9.44641709 16.10030553 11.94897555 18 15 C19.61470858 17.04961576 21.3013337 19.01822265 23 21 C19.74792908 19.58261511 17.68638933 17.87473588 15.25 15.3125 C11.91011579 11.87273141 8.4394479 8.7141025 4.76171875 5.640625 C2.90053838 3.90737499 1.4650122 2.07355573 0 0 Z " fill="#F9E663" transform="translate(91,288)"/>
<path d="M0 0 C0.33 0 0.66 0 1 0 C0.67 2.31 0.34 4.62 0 7 C-0.99 7.33 -1.98 7.66 -3 8 C-3.33 7.67 -3.66 7.34 -4 7 C-4.33 9.31 -4.66 11.62 -5 14 C-9.455 14.495 -9.455 14.495 -14 15 C-10.17897049 10.45115534 -6.3493889 6.05283966 -2 2 C-1.34 2 -0.68 2 0 2 C0 1.34 0 0.68 0 0 Z " fill="#3E6B83" transform="translate(100,36)"/>
<path d="M0 0 C3.11373372 1.49920512 6.12228205 3.08152136 9 5 C9 5.66 9 6.32 9 7 C9.804375 7.28875 10.60875 7.5775 11.4375 7.875 C14 9 14 9 15 11 C11.7 11.33 8.4 11.66 5 12 C4.67 9.36 4.34 6.72 4 4 C2.35 3.67 0.7 3.34 -1 3 C-0.67 2.01 -0.34 1.02 0 0 Z " fill="#2F637E" transform="translate(293,26)"/>
<path d="M0 0 C0.66 0.33 1.32 0.66 2 1 C2 1.66 2 2.32 2 3 C2.66 3 3.32 3 4 3 C4.66 4.65 5.32 6.3 6 8 C3.73648522 10.15366577 1.46300268 12.29650979 -0.8125 14.4375 C-1.77639648 15.35499023 -1.77639648 15.35499023 -2.75976562 16.29101562 C-3.69272461 17.1659668 -3.69272461 17.1659668 -4.64453125 18.05859375 C-5.21534424 18.59798584 -5.78615723 19.13737793 -6.37426758 19.69311523 C-8 21 -8 21 -11 22 C-11 20.68 -11 19.36 -11 18 C-9.68 18 -8.36 18 -7 18 C-6.814375 17.443125 -6.62875 16.88625 -6.4375 16.3125 C-4.33639286 12.93245808 -1.29334006 11.14859619 2 9 C1.41196203 5.97580475 0.77321882 2.98241547 0 0 Z " fill="#F9E164" transform="translate(276,146)"/>
<path d="M0 0 C2.475 0.99 2.475 0.99 5 2 C5.33 1.34 5.66 0.68 6 0 C6.99 0.33 7.98 0.66 9 1 C7.64713154 5.05860537 5.56634263 5.71215756 2 8 C-0.04718185 9.6174123 -2.01842192 11.30150451 -4 13 C-4 11.35 -4 9.7 -4 8 C-2.68 7.34 -1.36 6.68 0 6 C0 4.02 0 2.04 0 0 Z " fill="#225662" transform="translate(166,102)"/>
<path d="M0 0 C1.29228516 0.00322266 2.58457031 0.00644531 3.91601562 0.00976562 C5.27083401 0.0181196 6.62565172 0.02658453 7.98046875 0.03515625 C9.3548161 0.04017625 10.7291652 0.04473828 12.10351562 0.04882812 C15.45837799 0.06059957 18.81315096 0.07704342 22.16796875 0.09765625 C22.16796875 0.42765625 22.16796875 0.75765625 22.16796875 1.09765625 C21.47872314 1.10700195 20.78947754 1.11634766 20.0793457 1.12597656 C1.71306034 1.23940974 1.71306034 1.23940974 -15.83203125 6.09765625 C-15.83203125 5.43765625 -15.83203125 4.77765625 -15.83203125 4.09765625 C-14.84203125 4.09765625 -13.85203125 4.09765625 -12.83203125 4.09765625 C-12.50203125 3.10765625 -12.17203125 2.11765625 -11.83203125 1.09765625 C-7.82882972 0.14388441 -4.10991378 -0.01810535 0 0 Z " fill="#305848" transform="translate(191.83203125,96.90234375)"/>
<path d="M0 0 C1.9375 0.375 1.9375 0.375 4 1 C4.33 1.66 4.66 2.32 5 3 C5.99 3.33 6.98 3.66 8 4 C8.33 4.66 8.66 5.32 9 6 C9.99 5.67 10.98 5.34 12 5 C12.33 5.99 12.66 6.98 13 8 C13.99 8.66 14.98 9.32 16 10 C15.34 10 14.68 10 14 10 C14.33 11.65 14.66 13.3 15 15 C9.72997792 10.60831493 4.64697949 6.0573621 0 1 C0 0.67 0 0.34 0 0 Z " fill="#225658" transform="translate(232,355)"/>
<path d="M0 0 C2.75035217 3.43794021 4.8662016 7.16513154 7 11 C7.45117188 11.78632813 7.90234375 12.57265625 8.3671875 13.3828125 C8.82351562 14.18460937 9.27984375 14.98640625 9.75 15.8125 C10.17796875 16.56144531 10.6059375 17.31039063 11.046875 18.08203125 C12 20 12 20 12 22 C10.68 21.67 9.36 21.34 8 21 C7.67 18.36 7.34 15.72 7 13 C6.34 13 5.68 13 5 13 C2.95830515 10.09451118 2 8.59857954 2 5 C-0.31 5.33 -2.62 5.66 -5 6 C-3.35 4.02 -1.7 2.04 0 0 Z " fill="#D2C62F" transform="translate(33,450)"/>
<path d="M0 0 C0.66 0.33 1.32 0.66 2 1 C1.34 2.32 0.68 3.64 0 5 C-0.99 5 -1.98 5 -3 5 C-3.33 6.32 -3.66 7.64 -4 9 C-4.99 9 -5.98 9 -7 9 C-7.12375 9.61875 -7.2475 10.2375 -7.375 10.875 C-8 13 -8 13 -10 15 C-12.625 15.625 -12.625 15.625 -15 16 C-12.77397185 9.32191555 -5.15634728 4.52725044 0 0 Z " fill="#F8E353" transform="translate(74,60)"/>
<path d="M0 0 C3.03862983 2.02575322 3.45109431 2.5043349 4.8125 5.625 C6.67807779 9.61022259 9.04590415 12.84314541 11.828125 16.23828125 C13 18 13 18 13 21 C13.66 21 14.32 21 15 21 C15 21.66 15 22.32 15 23 C13.68 23 12.36 23 11 23 C10.34 20.36 9.68 17.72 9 15 C7.68 14.67 6.36 14.34 5 14 C3.515625 11.34765625 3.515625 11.34765625 2.25 8.0625 C1.82203125 6.98097656 1.3940625 5.89945313 0.953125 4.78515625 C0 2 0 2 0 0 Z " fill="#CEC131" transform="translate(72,198)"/>
<path d="M0 0 C0.99 0.33 1.98 0.66 3 1 C2.67 2.65 2.34 4.3 2 6 C1.34 6 0.68 6 0 6 C-0.99 9.96 -1.98 13.92 -3 18 C-3.33 18 -3.66 18 -4 18 C-4 15.36 -4 12.72 -4 10 C-4.66 9.67 -5.32 9.34 -6 9 C-5.01 7.02 -4.02 5.04 -3 3 C-2.01 3 -1.02 3 0 3 C0 2.01 0 1.02 0 0 Z " fill="#2E5A56" transform="translate(159,115)"/>
<path d="M0 0 C6.45362563 5.43844857 6.45362563 5.43844857 9.25 8.3125 C10.99500355 10.23771233 10.99500355 10.23771233 14 11 C14 11.66 14 12.32 14 13 C14.99 13.33 15.98 13.66 17 14 C17 14.66 17 15.32 17 16 C17.66 16.33 18.32 16.66 19 17 C18.01 17 17.02 17 16 17 C15.67 16.34 15.34 15.68 15 15 C13.11235097 14.31527335 13.11235097 14.31527335 10.9375 13.875 C9.83728516 13.62363281 9.83728516 13.62363281 8.71484375 13.3671875 C8.14894531 13.24601563 7.58304688 13.12484375 7 13 C7.33 11.68 7.66 10.36 8 9 C6.865625 8.62875 5.73125 8.2575 4.5625 7.875 C2.625 7.06640625 2.625 7.06640625 1 6 C0.0625 2.8125 0.0625 2.8125 0 0 Z " fill="#578095" transform="translate(220,208)"/>
<path d="M0 0 C9.46768711 1.83245557 17.76063809 4.98473623 26 10 C24.02 10.99 24.02 10.99 22 12 C21.62875 11.525625 21.2575 11.05125 20.875 10.5625 C19.00416377 8.73445871 19.00416377 8.73445871 15.9375 8.5 C14.968125 8.335 13.99875 8.17 13 8 C12.34 7.01 11.68 6.02 11 5 C7.43230448 4.26393501 7.43230448 4.26393501 4 4 C4 3.34 4 2.68 4 2 C2.68 2 1.36 2 0 2 C0 1.34 0 0.68 0 0 Z " fill="#D2C732" transform="translate(214,99)"/>
<path d="M0 0 C0.66 0 1.32 0 2 0 C6 6.75 6 6.75 6 9 C6.99 9.33 7.98 9.66 9 10 C10 12 11 14 12 16 C12.99 16.33 13.98 16.66 15 17 C15.33 19.31 15.66 21.62 16 24 C13.71935474 21.80838894 11.73729511 19.50936252 9.8125 17 C9.28269531 16.319375 8.75289062 15.63875 8.20703125 14.9375 C7 13 7 13 7 10 C6.34 10 5.68 10 5 10 C3.35 6.7 1.7 3.4 0 0 Z " fill="#F9E672" transform="translate(12,496)"/>
<path d="M0 0 C2.4375 0.0625 2.4375 0.0625 5 1 C6.6875 3.3125 6.6875 3.3125 8 6 C8.391875 6.70125 8.78375 7.4025 9.1875 8.125 C10 10 10 10 10 13 C6.04 9.37 2.08 5.74 -2 2 C-1.34 1.34 -0.68 0.68 0 0 Z " fill="#2B5B52" transform="translate(126,260)"/>
<path d="M0 0 C0.33 0 0.66 0 1 0 C1.18175781 0.76183594 1.36351562 1.52367187 1.55078125 2.30859375 C2.93714022 8.00332982 4.41776589 13.56195071 6.44921875 19.0625 C7 21 7 21 7 25 C6.01 24.67 5.02 24.34 4 24 C4 22.68 4 21.36 4 20 C3.34 20 2.68 20 2 20 C-0.29612756 6.3667426 -0.29612756 6.3667426 0 0 Z " fill="#C7BD2F" transform="translate(57,154)"/>
<path d="M0 0 C0.99 0.33 1.98 0.66 3 1 C3 2.32 3 3.64 3 5 C3.66 5 4.32 5 5 5 C5.33 4.01 5.66 3.02 6 2 C6.99 3.485 6.99 3.485 8 5 C7.67 5.66 7.34 6.32 7 7 C7.99 7 8.98 7 10 7 C10.33 7.99 10.66 8.98 11 10 C5.547001 8.43181728 1.23513217 6.96189783 -3 3 C-2.01 2.01 -1.02 1.02 0 0 Z " fill="#386350" transform="translate(116,536)"/>
<path d="M0 0 C0 0.66 0 1.32 0 2 C0.66 2 1.32 2 2 2 C2.66 3.98 3.32 5.96 4 8 C3.01 8 2.02 8 1 8 C0.34 6.68 -0.32 5.36 -1 4 C-4.96 4.99 -8.92 5.98 -13 7 C-6 0 -6 0 0 0 Z " fill="#61879B" transform="translate(121,399)"/>
<path d="M0 0 C2.69999726 1.00285612 5.09778489 2.05962493 7.5625 3.5625 C9.81917472 5.08735916 9.81917472 5.08735916 11.94921875 5.3359375 C14.74271485 6.24049814 15.58767625 7.68235462 17.25 10.0625 C17.77078125 10.79597656 18.2915625 11.52945313 18.828125 12.28515625 C19.21484375 12.85105469 19.6015625 13.41695312 20 14 C14.70324412 11.44971013 9.94149175 8.32434877 5.1875 4.875 C4.21167969 4.17117188 3.23585938 3.46734375 2.23046875 2.7421875 C1.49441406 2.16726563 0.75835937 1.59234375 0 1 C0 0.67 0 0.34 0 0 Z " fill="#365F46" transform="translate(91,524)"/>
<path d="M0 0 C2.31 0.66 4.62 1.32 7 2 C7 2.66 7 3.32 7 4 C8.32 4.33 9.64 4.66 11 5 C11 5.66 11 6.32 11 7 C11.66 7 12.32 7 13 7 C14.7265625 8.75 14.7265625 8.75 16.625 11 C17.57246094 12.11375 17.57246094 12.11375 18.5390625 13.25 C19.02117187 13.8275 19.50328125 14.405 20 15 C15.96669233 15 15.13246261 13.55621053 12.25 10.8125 C9.23024421 8.00085055 6.26945177 5.34840643 2.875 3 C1.92625 2.34 0.9775 1.68 0 1 C0 0.67 0 0.34 0 0 Z " fill="#F8E669" transform="translate(154,344)"/>
<path d="M0 0 C1.32 0 2.64 0 4 0 C4.33 0.66 4.66 1.32 5 2 C7.90050829 3.88141079 10.88656995 5.50094109 14 7 C14 7.99 14 8.98 14 10 C14.99 10.33 15.98 10.66 17 11 C16.67 11.99 16.34 12.98 16 14 C15.01 13.34 14.02 12.68 13 12 C13 11.34 13 10.68 13 10 C12.43796875 9.74347656 11.8759375 9.48695313 11.296875 9.22265625 C8.71960738 7.85074338 6.54832724 6.23635416 4.25 4.4375 C3.45078125 3.81746094 2.6515625 3.19742187 1.828125 2.55859375 C1.22484375 2.04425781 0.6215625 1.52992188 0 1 C0 0.67 0 0.34 0 0 Z " fill="#F9E35C" transform="translate(114,310)"/>
<path d="M0 0 C1.98 0 3.96 0 6 0 C-1.1376147 5.9278495 -11.0339367 8.32836108 -20 10 C-20 9.34 -20 8.68 -20 8 C-18.10751181 7.32389577 -16.2108398 6.65949561 -14.3125 6 C-13.25675781 5.62875 -12.20101563 5.2575 -11.11328125 4.875 C-8.21637944 4.0608143 -5.98299377 3.82290204 -3 4 C-3 3.34 -3 2.68 -3 2 C-2.01 2 -1.02 2 0 2 C0 1.34 0 0.68 0 0 Z " fill="#385F3B" transform="translate(276,545)"/>
<path d="M0 0 C2.38671875 0.6484375 2.38671875 0.6484375 5 2 C6.14453125 4.6015625 6.14453125 4.6015625 6.8125 7.625 C7.04582031 8.62789063 7.27914063 9.63078125 7.51953125 10.6640625 C7.67808594 11.43492187 7.83664062 12.20578125 8 13 C8.66 13 9.32 13 10 13 C10.33 16.63 10.66 20.26 11 24 C9.25992391 21.38988587 8.50307489 19.73080772 7.625 16.8125 C6.17135593 12.28185299 4.21952901 8.19643744 2 4 C1.33053565 2.66806918 0.66312764 1.33509698 0 0 Z " fill="#4F6B3D" transform="translate(255,380)"/>
<path d="M0 0 C1.32 0 2.64 0 4 0 C4.33 1.32 4.66 2.64 5 4 C6.32 4 7.64 4 9 4 C9.33 5.32 9.66 6.64 10 8 C10.5775 8.0825 11.155 8.165 11.75 8.25 C14.6159304 9.20531013 15.9990764 10.78469173 18 13 C17.67 13.99 17.34 14.98 17 16 C16.67 15.01 16.34 14.02 16 13 C15.01 13 14.02 13 13 13 C13 12.34 13 11.68 13 11 C12.46375 10.773125 11.9275 10.54625 11.375 10.3125 C6.74599432 7.75436528 2.93499566 4.40249349 0 0 Z " fill="#F7E572" transform="translate(174,360)"/>
<path d="M0 0 C4.03810445 1.34603482 5.47295076 3.65336723 8 7 C8 7.66 8 8.32 8 9 C9.65 9.33 11.3 9.66 13 10 C13.33 12.31 13.66 14.62 14 17 C2.75676 6.09746425 2.75676 6.09746425 0 0 Z " fill="#F9E050" transform="translate(55,248)"/>
<path d="M0 0 C1.67542976 0.28604898 3.34385343 0.61781233 5 1 C4 3 4 3 1.4375 4.375 C0.2309375 5.179375 0.2309375 5.179375 -1 6 C-1 7.32 -1 8.64 -1 10 C-1.66 10 -2.32 10 -3 10 C-3.33 10.66 -3.66 11.32 -4 12 C-4.99 12 -5.98 12 -7 12 C-5.45052978 7.60983438 -3.33033996 3.33033996 0 0 Z " fill="#326067" transform="translate(86,51)"/>
<path d="M0 0 C0.66 0.33 1.32 0.66 2 1 C1.79375 1.94875 1.5875 2.8975 1.375 3.875 C1.25125 4.90625 1.1275 5.9375 1 7 C1.66 7.66 2.32 8.32 3 9 C3.125 12.125 3.125 12.125 3 15 C-0.35617222 11.96346323 -2.73905411 8.87011218 -3.375 4.3125 C-3.25125 3.549375 -3.1275 2.78625 -3 2 C-2.01 1.34 -1.02 0.68 0 0 Z " fill="#F5DD48" transform="translate(3,470)"/>
<path d="M0 0 C0.66 0 1.32 0 2 0 C2.433125 1.2065625 2.433125 1.2065625 2.875 2.4375 C3.73262568 5.1326468 3.73262568 5.1326468 6 6 C6 6.99 6 7.98 6 9 C7.32 9.33 8.64 9.66 10 10 C10.33 12.64 10.66 15.28 11 18 C7.86632637 15.91088424 6.80644786 14.12874506 5.05078125 10.875 C3.88182857 8.71982004 3.88182857 8.71982004 1.75 5.75 C0 3 0 3 0 0 Z " fill="#FAE668" transform="translate(44,230)"/>
<path d="M0 0 C0.99 0 1.98 0 3 0 C2.32512263 4.81919471 0.42034091 8.91883866 -1.5625 13.3125 C-1.89185547 14.05306641 -2.22121094 14.79363281 -2.56054688 15.55664062 C-3.36917123 17.37311562 -4.18397116 19.18683931 -5 21 C-5.33 21 -5.66 21 -6 21 C-6 18.69 -6 16.38 -6 14 C-5.34 14 -4.68 14 -4 14 C-4 12.68 -4 11.36 -4 10 C-3.34 10 -2.68 10 -2 10 C-1.34 6.7 -0.68 3.4 0 0 Z " fill="#DFCD2D" transform="translate(67,75)"/>
<path d="M0 0 C0.33 1.32 0.66 2.64 1 4 C2.98 4 4.96 4 7 4 C7 4.66 7 5.32 7 6 C7.99 6.33 8.98 6.66 10 7 C8.1875 7.625 8.1875 7.625 6 8 C5.01 7.34 4.02 6.68 3 6 C1.5134281 5.46138699 0.01165443 4.96357403 -1.5 4.5 C-4.49743253 3.58078736 -6.33472786 2.77684809 -9 1 C-7.88625 1.020625 -6.7725 1.04125 -5.625 1.0625 C-2.16784079 1.26380718 -2.16784079 1.26380718 0 0 Z " fill="#2A574C" transform="translate(136,545)"/>
<path d="M0 0 C0.66 0.33 1.32 0.66 2 1 C0.60249952 4.15835107 -1.05198234 6.32272825 -3.5 8.75 C-4.41265625 9.67039062 -4.41265625 9.67039062 -5.34375 10.609375 C-7 12 -7 12 -9 12 C-8.45015228 8.12488273 -6.72444669 6.40423494 -3.9375 3.75 C-3.20402344 3.04359375 -2.47054687 2.3371875 -1.71484375 1.609375 C-1.14894531 1.07828125 -0.58304688 0.5471875 0 0 Z " fill="#E0CD25" transform="translate(170,107)"/>
<path d="M0 0 C0.33 0 0.66 0 1 0 C1.33 7.92 1.66 15.84 2 24 C1.01 24.33 0.02 24.66 -1 25 C-1 25.99 -1 26.98 -1 28 C-1.66 28 -2.32 28 -3 28 C-2.68289063 27.24460937 -2.36578125 26.48921875 -2.0390625 25.7109375 C-0.63099364 20.68212016 -0.53601634 15.82448599 -0.375 10.625 C-0.33632813 9.60277344 -0.29765625 8.58054687 -0.2578125 7.52734375 C-0.16402036 5.01840403 -0.07832121 2.50946236 0 0 Z " fill="#3E6548" transform="translate(266,404)"/>
<path d="M0 0 C4.41391016 1.20379368 7.16257631 2.35188383 10 6 C11.25 9.25 11.25 9.25 12 12 C11.01 11.67 10.02 11.34 9 11 C9 10.34 9 9.68 9 9 C8.01 8.67 7.02 8.34 6 8 C6 7.34 6 6.68 6 6 C5.34 6 4.68 6 4 6 C4 5.34 4 4.68 4 4 C3.01 3.67 2.02 3.34 1 3 C0.67 2.01 0.34 1.02 0 0 Z " fill="#F9E364" transform="translate(40,534)"/>
<path d="M0 0 C0.33 0 0.66 0 1 0 C1.33 3.96 1.66 7.92 2 12 C0.35 12.33 -1.3 12.66 -3 13 C-2.88490339 11.58249437 -2.75746342 10.16598831 -2.625 8.75 C-2.55539063 7.96109375 -2.48578125 7.1721875 -2.4140625 6.359375 C-1.98492887 3.914123 -1.21399362 2.15163097 0 0 Z " fill="#235557" transform="translate(66,84)"/>
<path d="M0 0 C3.80635497 3.20760251 7.54563567 6.40746109 11 10 C10.236875 9.835 9.47375 9.67 8.6875 9.5 C5.96403764 8.90854604 5.96403764 8.90854604 3 9 C1.35173889 6.03312999 0.55728913 3.34373475 0 0 Z " fill="#4B7790" transform="translate(147,436)"/>
<path d="M0 0 C0.515625 0.309375 1.03125 0.61875 1.5625 0.9375 C4.66665423 2.29059287 7.65115007 2.61359424 11 3 C11 4.32 11 5.64 11 7 C12.4166747 8.7511573 12.4166747 8.7511573 14 10 C13.67 10.66 13.34 11.32 13 12 C12.278125 11.236875 11.55625 10.47375 10.8125 9.6875 C8.18901817 6.97987682 8.18901817 6.97987682 5.375 5.4375 C2.85481252 3.91212337 1.60063812 2.44307924 0 0 Z " fill="#385F49" transform="translate(244,112)"/>
<path d="M0 0 C2.0625 0.4375 2.0625 0.4375 4 1 C3.67 1.33 3.34 1.66 3 2 C3.66 2.33 4.32 2.66 5 3 C5 2.34 5 1.68 5 1 C6.32 1.33 7.64 1.66 9 2 C7.38007835 2.86375896 5.75388139 3.71575854 4.125 4.5625 C2.76761719 5.27599609 2.76761719 5.27599609 1.3828125 6.00390625 C0.59648437 6.33261719 -0.18984375 6.66132812 -1 7 C-1.66 6.67 -2.32 6.34 -3 6 C-1.125 1.125 -1.125 1.125 0 0 Z " fill="#2C5958" transform="translate(285,538)"/>
<path d="M0 0 C0.66 0 1.32 0 2 0 C2.66 4.95 3.32 9.9 4 15 C0 13 0 13 -2 10 C-1.67 9.67 -1.34 9.34 -1 9 C-0.76807135 7.48530552 -0.58784762 5.96245438 -0.4375 4.4375 C-0.35371094 3.61121094 -0.26992187 2.78492188 -0.18359375 1.93359375 C-0.12300781 1.29550781 -0.06242188 0.65742188 0 0 Z " fill="#3C6B81" transform="translate(156,134)"/>
<path d="M0 0 C3.94120709 0.56302958 6.7508723 1.6791945 10 4 C10 4.66 10 5.32 10 6 C10.66 6 11.32 6 12 6 C12 6.66 12 7.32 12 8 C12.99 8 13.98 8 15 8 C15.33 8.99 15.66 9.98 16 11 C11.96775333 9.61751543 9.26635219 7.7086823 6 5 C4.906875 4.278125 3.81375 3.55625 2.6875 2.8125 C1.800625 2.214375 0.91375 1.61625 0 1 C0 0.67 0 0.34 0 0 Z " fill="#F7E56F" transform="translate(205,136)"/>
<path d="M0 0 C2.70931419 0.15481795 4.46584039 0.48172081 6.4453125 2.40234375 C7.67679642 3.89771708 8.8429837 5.4462924 10 7 C8.02 7 6.04 7 4 7 C3.67 6.01 3.34 5.02 3 4 C2.01 4.33 1.02 4.66 0 5 C0 3.33333333 0 1.66666667 0 0 Z " fill="#437188" transform="translate(178,173)"/>
<path d="M0 0 C4.29 0 8.58 0 13 0 C13 0.33 13 0.66 13 1 C10.10496617 1.50505263 7.20912047 2.0042022 4.3125 2.5 C3.08756836 2.71462891 3.08756836 2.71462891 1.83789062 2.93359375 C-2.14978248 3.61165962 -5.93730404 4.19858392 -10 4 C-9.67 3.34 -9.34 2.68 -9 2 C-6.03 2 -3.06 2 0 2 C0 1.34 0 0.68 0 0 Z " fill="#335843" transform="translate(243,555)"/>
<path d="M0 0 C2.31 0.66 4.62 1.32 7 2 C7.33 4.64 7.66 7.28 8 10 C4.30209954 8.76736651 4.0645154 7.79947549 2.3125 4.4375 C1.87550781 3.61121094 1.43851563 2.78492188 0.98828125 1.93359375 C0.66214844 1.29550781 0.33601563 0.65742188 0 0 Z " fill="#335D52" transform="translate(55,485)"/>
<path d="M0 0 C3.09891358 0.92129863 4.72788114 1.67158069 6.8125 4.1875 C8.26040295 7.61674383 8.2168384 10.31374727 8 14 C6.25372522 11.38058783 5.61277612 9.96175123 5 7 C4.34 7 3.68 7 3 7 C0 2.61538462 0 2.61538462 0 0 Z " fill="#F8E35F" transform="translate(222,406)"/>
<path d="M0 0 C2.97 0.495 2.97 0.495 6 1 C6 1.66 6 2.32 6 3 C6.66 3 7.32 3 8 3 C8.12375 3.928125 8.12375 3.928125 8.25 4.875 C8.81258459 7.18437567 8.81258459 7.18437567 11.0625 8.25 C11.701875 8.4975 12.34125 8.745 13 9 C12.67 9.66 12.34 10.32 12 11 C6.88625143 8.22396506 3.22828075 4.84242112 0 0 Z " fill="#F7E15E" transform="translate(131,324)"/>
<path d="M0 0 C0.33 0.66 0.66 1.32 1 2 C0.67 2.66 0.34 3.32 0 4 C1.65 4.33 3.3 4.66 5 5 C5 6.98 5 8.96 5 11 C1.73991357 7.83047153 -1.22237877 4.60062011 -4 1 C-2.68 0.67 -1.36 0.34 0 0 Z " fill="#2E5C50" transform="translate(105,236)"/>
<path d="M0 0 C0.66 0 1.32 0 2 0 C2.25523438 0.81404297 2.25523438 0.81404297 2.515625 1.64453125 C4.42025405 7.30533471 4.42025405 7.30533471 9 11 C8.67 12.65 8.34 14.3 8 16 C4.98291655 14.49145828 4.35542698 12.10730943 2.875 9.125 C2.33617188 8.05507812 1.79734375 6.98515625 1.2421875 5.8828125 C0 3 0 3 0 0 Z " fill="#25554E" transform="translate(69,188)"/>
<path d="M0 0 C5.91260345 -0.25706972 11.23918159 0.7017874 17 2 C17 2.33 17 2.66 17 3 C14.54101345 3.08076963 12.08466258 3.14037143 9.625 3.1875 C8.57699219 3.22520508 8.57699219 3.22520508 7.5078125 3.26367188 C5.4765625 3.29296875 5.4765625 3.29296875 2 3 C1.34 2.01 0.68 1.02 0 0 Z " fill="#DACB30" transform="translate(162,558)"/>
<path d="M0 0 C4.35236753 0.65944963 7.97205697 2.26381766 12 4 C14.31982601 4.74162079 16.64472724 5.37513172 19 6 C15.42355152 7.2380014 12.66305234 6.74926071 9 6 C9 5.34 9 4.68 9 4 C8.2575 4.0825 7.515 4.165 6.75 4.25 C3.21842973 3.92894816 2.23369636 2.64734383 0 0 Z " fill="#C5BF31" transform="translate(122,545)"/>
<path d="M0 0 C2.75 0 2.75 0 6 1 C7.77583178 3.48730285 8.8496174 6.18156264 10 9 C10.65647651 10.33837992 11.32024757 11.67329021 12 13 C7.32902896 9.60293015 3.57901438 5.507289 0 1 C0 0.67 0 0.34 0 0 Z " fill="#F9E76A" transform="translate(210,393)"/>
<path d="M0 0 C-3.79063436 3.79063436 -10.3049522 3.86545783 -15.50390625 4.125 C-17.33641126 4.125 -19.16879834 4.06910195 -21 4 C-21 3.67 -21 3.34 -21 3 C-18.6263603 2.49265716 -16.25142575 1.99397614 -13.875 1.5 C-13.20984375 1.35691406 -12.5446875 1.21382812 -11.859375 1.06640625 C-7.83943578 0.2387717 -4.10095101 -0.15330658 0 0 Z " fill="#C3BD34" transform="translate(254,556)"/>
<path d="M0 0 C-0.33 1.65 -0.66 3.3 -1 5 C-2.32 5 -3.64 5 -5 5 C-5 4.34 -5 3.68 -5 3 C-6.98 3 -8.96 3 -11 3 C-7.88866897 -0.11133103 -4.26881718 0 0 0 Z " fill="#F2D413" transform="translate(287,546)"/>
<path d="M0 0 C0 0.66 0 1.32 0 2 C-0.9590625 2.1546875 -0.9590625 2.1546875 -1.9375 2.3125 C-2.618125 2.539375 -3.29875 2.76625 -4 3 C-4.33 3.99 -4.66 4.98 -5 6 C-8.375 7.75 -8.375 7.75 -12 9 C-12.99 8.67 -13.98 8.34 -15 8 C-14.31292969 7.59007812 -13.62585937 7.18015625 -12.91796875 6.7578125 C-12.01691406 6.21898437 -11.11585937 5.68015625 -10.1875 5.125 C-9.29417969 4.59132813 -8.40085937 4.05765625 -7.48046875 3.5078125 C-1.70984456 0 -1.70984456 0 0 0 Z " fill="#628599" transform="translate(61,434)"/>
<path d="M0 0 C2 1 2 1 2.6328125 2.8203125 C3.6669317 7.66261668 4.2106585 12.04952534 4 17 C0.68341387 12.0251208 -0.38479461 5.96431647 0 0 Z " fill="#355A45" transform="translate(57,149)"/>
<path d="M0 0 C1.65 0 3.3 0 5 0 C5.66 1.32 6.32 2.64 7 4 C7.66 3.67 8.32 3.34 9 3 C9.66 3.66 10.32 4.32 11 5 C10.34 5 9.68 5 9 5 C9.33 6.65 9.66 8.3 10 10 C2.51708428 3.84965831 2.51708428 3.84965831 0 0 Z " fill="#2C5753" transform="translate(258,124)"/>
<path d="M0 0 C0.66 0.33 1.32 0.66 2 1 C1.67 1.66 1.34 2.32 1 3 C0.34 3 -0.32 3 -1 3 C-1 3.66 -1 4.32 -1 5 C-1.99580078 5.09087891 -1.99580078 5.09087891 -3.01171875 5.18359375 C-9.54908081 5.79863507 -9.54908081 5.79863507 -16 7 C-12.90636923 4.36931161 -10.24105702 3.32960264 -6.3125 2.375 C-2.86115332 1.75123079 -2.86115332 1.75123079 0 0 Z " fill="#6F8D8A" transform="translate(237,456)"/>
<path d="M0 0 C0.33 0 0.66 0 1 0 C1.34884724 4.89839668 0.46792622 7.65895937 -2 11.875 C-2.556875 12.84179688 -3.11375 13.80859375 -3.6875 14.8046875 C-4.120625 15.52914063 -4.55375 16.25359375 -5 17 C-5.33 15.68 -5.66 14.36 -6 13 C-5.34 13 -4.68 13 -4 13 C-3.896875 12.34 -3.79375 11.68 -3.6875 11 C-2.80786436 7.16158991 -1.43030104 3.66903309 0 0 Z " fill="#CCC131" transform="translate(265,420)"/>
<path d="M0 0 C1.12894876 0.93274109 2.25300876 1.87140122 3.375 2.8125 C4.00148437 3.33457031 4.62796875 3.85664063 5.2734375 4.39453125 C7 6 7 6 9 9 C5.28400809 9.20086443 4.22791555 9.1519437 1 7 C0.3125 3.375 0.3125 3.375 0 0 Z " fill="#DFCB24" transform="translate(225,349)"/>
<path d="M0 0 C6.18160604 0.53753096 11.326858 2.54582388 17 5 C17 5.33 17 5.66 17 6 C10.59859065 5.53444296 5.73230171 3.85288164 0 1 C0 0.67 0 0.34 0 0 Z " fill="#F9E778" transform="translate(94,574)"/>
<path d="M0 0 C0.66 0.33 1.32 0.66 2 1 C2 1.66 2 2.32 2 3 C3.32 3.66 4.64 4.32 6 5 C3.38058783 6.74627478 1.96175123 7.38722388 -1 8 C-1.33 7.01 -1.66 6.02 -2 5 C-1.34 5 -0.68 5 0 5 C0 3.35 0 1.7 0 0 Z " fill="#E4D119" transform="translate(75,510)"/>
<path d="M0 0 C1.66666667 1 3.33333333 2 5 3 C6.2684375 3.7115625 6.2684375 3.7115625 7.5625 4.4375 C10.07503792 6.04810123 11.97180155 7.82156463 14 10 C11.03 9.01 8.06 8.02 5 7 C5 6.34 5 5.68 5 5 C4.01 5 3.02 5 2 5 C2 4.34 2 3.68 2 3 C1.34 3 0.68 3 0 3 C0 2.01 0 1.02 0 0 Z " fill="#83A1B1" transform="translate(158,446)"/>
<path d="M0 0 C2.04119788 1.61594832 4.04072937 3.2856382 6 5 C6 5.66 6 6.32 6 7 C6.99 7.33 7.98 7.66 9 8 C7.68 8.33 6.36 8.66 5 9 C4.67 8.01 4.34 7.02 4 6 C3.01 5.67 2.02 5.34 1 5 C1 4.34 1 3.68 1 3 C0.01 2.67 -0.98 2.34 -2 2 C-1.34 2 -0.68 2 0 2 C0 1.34 0 0.68 0 0 Z " fill="#577E94" transform="translate(302,279)"/>
<path d="M0 0 C2.31 0 4.62 0 7 0 C1.85714286 6.57142857 1.85714286 6.57142857 -2 8 C-2 6.68 -2 5.36 -2 4 C-0.68 4 0.64 4 2 4 C1.34 2.68 0.68 1.36 0 0 Z " fill="#F9DD45" transform="translate(258,168)"/>
<path d="M0 0 C7.48291572 6.15034169 7.48291572 6.15034169 10 10 C6.41005174 8.66659064 3.04479945 7.34884529 0 5 C-0.3125 2.3125 -0.3125 2.3125 0 0 Z " fill="#D8C726" transform="translate(258,125)"/>
<path d="M0 0 C0.33 0 0.66 0 1 0 C0.67 2.31 0.34 4.62 0 7 C-3.08558124 8.02852708 -4.77356651 8 -8 8 C-7.0479279 6.99403703 -6.08812654 5.99538437 -5.125 5 C-4.59132813 4.443125 -4.05765625 3.88625 -3.5078125 3.3125 C-2 2 -2 2 0 2 C0 1.34 0 0.68 0 0 Z " fill="#5A839B" transform="translate(100,36)"/>
<path d="M0 0 C0.53625 0.2475 1.0725 0.495 1.625 0.75 C0.965 0.75 0.305 0.75 -0.375 0.75 C-0.375 1.41 -0.375 2.07 -0.375 2.75 C-2.6875 5.375 -2.6875 5.375 -5.375 7.75 C-6.365 7.75 -7.355 7.75 -8.375 7.75 C-7.715 6.76 -7.055 5.77 -6.375 4.75 C-7.035 4.42 -7.695 4.09 -8.375 3.75 C-2.95961538 -0.31153846 -2.95961538 -0.31153846 0 0 Z " fill="#E3D874" transform="translate(299.375,537.25)"/>
<path d="M0 0 C2.475 0.495 2.475 0.495 5 1 C5 1.99 5 2.98 5 4 C5.99 4.33 6.98 4.66 8 5 C7.67 6.32 7.34 7.64 7 9 C4.03595495 6.19195732 1.55500981 3.81684226 0 0 Z " fill="#2B5751" transform="translate(63,495)"/>
<path d="M0 0 C0.66 0 1.32 0 2 0 C3 1.66666667 4 3.33333333 5 5 C5.66 5 6.32 5 7 5 C7.33 7.64 7.66 10.28 8 13 C4.3260401 9.62392874 1.94593446 6.60879214 0 2 C0 1.34 0 0.68 0 0 Z " fill="#335C49" transform="translate(47,472)"/>
<path d="M0 0 C0 0.99 0 1.98 0 3 C-1.32 3.33 -2.64 3.66 -4 4 C-4 5.98 -4 7.96 -4 10 C-3.34 10 -2.68 10 -2 10 C-2.33 10.99 -2.66 11.98 -3 13 C-4.89865603 10.02819057 -6.35455571 7.48539917 -7 4 C-2.25 0 -2.25 0 0 0 Z " fill="#547975" transform="translate(41,446)"/>
<path d="M0 0 C2.64 0.66 5.28 1.32 8 2 C8 3.65 8 5.3 8 7 C8.66 7 9.32 7 10 7 C9.67 7.66 9.34 8.32 9 9 C7.68412059 7.87895467 6.37239647 6.75303035 5.0625 5.625 C4.33160156 4.99851562 3.60070312 4.37203125 2.84765625 3.7265625 C1 2 1 2 0 0 Z " fill="#3F6347" transform="translate(204,330)"/>
<path d="M0 0 C2.64 0.66 5.28 1.32 8 2 C7.67 3.32 7.34 4.64 7 6 C7 6.99 7 7.98 7 9 C5 7.1875 5 7.1875 3 5 C3 4.01 3 3.02 3 2 C2.01 1.67 1.02 1.34 0 1 C0 0.67 0 0.34 0 0 Z " fill="#205257" transform="translate(87,220)"/>
<path d="M0 0 C0.99 1.32 1.98 2.64 3 4 C1.68 5.32 0.36 6.64 -1 8 C-1.66 7.34 -2.32 6.68 -3 6 C-2.67 5.01 -2.34 4.02 -2 3 C-2.66 2.67 -3.32 2.34 -4 2 C-2.68 1.34 -1.36 0.68 0 0 Z " fill="#215C7C" transform="translate(45,443)"/>
<path d="M0 0 C4.13937592 3.30015998 7.58662205 6.17324411 10 11 C7.6875 10.875 7.6875 10.875 5 10 C3.3125 7.1875 3.3125 7.1875 2 4 C1.34189997 2.66241764 0.67701784 1.32810733 0 0 Z " fill="#E3CF27" transform="translate(99,236)"/>
<path d="M0 0 C0.66 0 1.32 0 2 0 C3.79275866 3.11910856 4.34290718 5.67682428 4.625 9.25 C4.69976562 10.14203125 4.77453125 11.0340625 4.8515625 11.953125 C4.90054688 12.62859375 4.94953125 13.3040625 5 14 C2.42924159 10.98552165 1.47792934 8.64020229 0.8125 4.75 C0.65394531 3.85796875 0.49539062 2.9659375 0.33203125 2.046875 C0.22246094 1.37140625 0.11289062 0.6959375 0 0 Z " fill="#F9E775" transform="translate(31,201)"/>
<path d="M0 0 C2.31 0 4.62 0 7 0 C7.33 0.99 7.66 1.98 8 3 C7.67 3.66 7.34 4.32 7 5 C7.66 5 8.32 5 9 5 C8.67 5.66 8.34 6.32 8 7 C4.46399535 5.08864614 2.21027154 3.37357234 0 0 Z " fill="#345F4C" transform="translate(166,299)"/>
<path d="M0 0 C1.14926266 0.95421808 2.29430541 1.91352045 3.4375 2.875 C4.07558594 3.40867187 4.71367187 3.94234375 5.37109375 4.4921875 C7 6 7 6 8 8 C5.03 7.505 5.03 7.505 2 7 C2 6.34 2 5.68 2 5 C1.34 5 0.68 5 0 5 C0 3.35 0 1.7 0 0 Z " fill="#5E859C" transform="translate(311,288)"/>
<path d="M0 0 C2 1 2 1 2.8515625 3.06640625 C3.10679688 3.89011719 3.36203125 4.71382812 3.625 5.5625 C3.88539062 6.38878906 4.14578125 7.21507812 4.4140625 8.06640625 C4.60742188 8.70449219 4.80078125 9.34257812 5 10 C3.68 9.67 2.36 9.34 1 9 C0.67 6.03 0.34 3.06 0 0 Z " fill="#CCC229" transform="translate(67,187)"/>
<path d="M0 0 C0.99 0.33 1.98 0.66 3 1 C2.04578192 2.14926266 1.08647955 3.29430541 0.125 4.4375 C-0.40867188 5.07558594 -0.94234375 5.71367188 -1.4921875 6.37109375 C-3 8 -3 8 -5 9 C-5 7.35 -5 5.7 -5 4 C-3.35 3.67 -1.7 3.34 0 3 C0 2.01 0 1.02 0 0 Z " fill="#26594E" transform="translate(167,106)"/>
<path d="M0 0 C0 0.99 0 1.98 0 3 C-1.60149886 3.67305018 -3.20631029 4.33822227 -4.8125 5 C-5.70582031 5.37125 -6.59914063 5.7425 -7.51953125 6.125 C-10 7 -10 7 -13 7 C-12.45730469 6.66226562 -11.91460938 6.32453125 -11.35546875 5.9765625 C-10.64003906 5.53054688 -9.92460937 5.08453125 -9.1875 4.625 C-8.47980469 4.18414062 -7.77210937 3.74328125 -7.04296875 3.2890625 C-1.83030303 0 -1.83030303 0 0 0 Z " fill="#F8E66F" transform="translate(28,456)"/>
<path d="M0 0 C0.33 0 0.66 0 1 0 C1.33 1.65 1.66 3.3 2 5 C3.32 5.33 4.64 5.66 6 6 C3.1875 7.5625 3.1875 7.5625 0 9 C-0.99 8.67 -1.98 8.34 -3 8 C-2.01 5.36 -1.02 2.72 0 0 Z " fill="#E5D859" transform="translate(234,450)"/>
<path d="M0 0 C0.33 0 0.66 0 1 0 C1.05423638 1.91635217 1.09289963 3.83314925 1.125 5.75 C1.14820313 6.81734375 1.17140625 7.8846875 1.1953125 8.984375 C1.00487687 11.92470106 0.52670104 13.52361878 -1 16 C-1 15.01 -1 14.02 -1 13 C-1.99 12.67 -2.98 12.34 -4 12 C-4 11.34 -4 10.68 -4 10 C-3.01 10 -2.02 10 -1 10 C-0.67 6.7 -0.34 3.4 0 0 Z " fill="#86B0C5" transform="translate(366,424)"/>
<path d="M0 0 C1.15224028 0.92961422 2.29659176 1.8690125 3.4375 2.8125 C4.07558594 3.33457031 4.71367187 3.85664063 5.37109375 4.39453125 C7 6 7 6 8 9 C7.01 9.33 6.02 9.66 5 10 C5 8.68 5 7.36 5 6 C3.68 5.67 2.36 5.34 1 5 C0.67 3.35 0.34 1.7 0 0 Z " fill="#DED027" transform="translate(242,366)"/>
<path d="M0 0 C5.41139241 0.60126582 5.41139241 0.60126582 7.9375 2.3125 C9 4 9 4 8.56640625 6.10546875 C8.37949219 6.73066406 8.19257813 7.35585938 8 8 C6.66372225 6.85760183 5.33104612 5.71098945 4 4.5625 C3.2575 3.92441406 2.515 3.28632813 1.75 2.62890625 C1.1725 2.09136719 0.595 1.55382812 0 1 C0 0.67 0 0.34 0 0 Z " fill="#31594B" transform="translate(223,347)"/>
<path d="M0 0 C2.64 0.33 5.28 0.66 8 1 C8.33 2.98 8.66 4.96 9 7 C5.18315774 5.44499019 2.80804268 2.96404505 0 0 Z " fill="#2E574A" transform="translate(150,285)"/>
<path d="M0 0 C0.66 0 1.32 0 2 0 C2.66 1.98 3.32 3.96 4 6 C4.99 6 5.98 6 7 6 C7.33 7.98 7.66 9.96 8 12 C2.00704225 6.16901408 2.00704225 6.16901408 0 3 C0 2.01 0 1.02 0 0 Z " fill="#2F5945" transform="translate(77,204)"/>
<path d="M0 0 C-4.625 5.875 -4.625 5.875 -8 7 C-8 6.34 -8 5.68 -8 5 C-7.34 5 -6.68 5 -6 5 C-6 3.35 -6 1.7 -6 0 C-3.50907189 -1.24546405 -2.58919267 -0.7767578 0 0 Z " fill="#4D778F" transform="translate(344,99)"/>
<path d="M0 0 C1.32 0 2.64 0 4 0 C4 0.66 4 1.32 4 2 C5.32 2 6.64 2 8 2 C8 2.99 8 3.98 8 5 C8.66 5 9.32 5 10 5 C10 5.66 10 6.32 10 7 C5.56541027 5.6062718 3.12621626 3.39417765 0 0 Z " fill="#F7E460" transform="translate(60,553)"/>
<path d="M0 0 C0.99 0.33 1.98 0.66 3 1 C3 2.32 3 3.64 3 5 C3.99 5.33 4.98 5.66 6 6 C0.46153846 6.36923077 0.46153846 6.36923077 -1.875 4.5 C-2.24625 4.005 -2.6175 3.51 -3 3 C-2.01 2.01 -1.02 1.02 0 0 Z " fill="#285A57" transform="translate(116,536)"/>
<path d="M0 0 C0.66 0.33 1.32 0.66 2 1 C0.71475739 1.86380259 -0.57842419 2.71580369 -1.875 3.5625 C-2.59429687 4.03816406 -3.31359375 4.51382813 -4.0546875 5.00390625 C-4.69664062 5.33261719 -5.33859375 5.66132812 -6 6 C-6.66 5.67 -7.32 5.34 -8 5 C-7.67 3.68 -7.34 2.36 -7 1 C-5.5459375 1.0309375 -5.5459375 1.0309375 -4.0625 1.0625 C-1.12534105 1.35618499 -1.12534105 1.35618499 0 0 Z " fill="#548397" transform="translate(307,530)"/>
<path d="M0 0 C1.9375 0.375 1.9375 0.375 4 1 C4.33 1.66 4.66 2.32 5 3 C5.99 3.33 6.98 3.66 8 4 C8.33 5.65 8.66 7.3 9 9 C7.87105124 8.06725891 6.74699124 7.12859878 5.625 6.1875 C4.99851563 5.66542969 4.37203125 5.14335937 3.7265625 4.60546875 C2 3 2 3 0 0 Z " fill="#345B4B" transform="translate(232,355)"/>
<path d="M0 0 C2.5 1.375 2.5 1.375 5 3 C5 3.66 5 4.32 5 5 C5.78375 5.268125 6.5675 5.53625 7.375 5.8125 C10 7 10 7 12 10 C6.25 8.125 6.25 8.125 4 7 C3.33333333 5.66666667 2.66666667 4.33333333 2 3 C1.34 2.67 0.68 2.34 0 2 C0 1.34 0 0.68 0 0 Z " fill="#8BABB8" transform="translate(264,246)"/>
<path d="M0 0 C1.9375 0.3125 1.9375 0.3125 4 1 C4.33 1.99 4.66 2.98 5 4 C5.495 4.474375 5.99 4.94875 6.5 5.4375 C8.24185971 7.25193719 8.57855013 8.55559077 9 11 C8.34 10.67 7.68 10.34 7 10 C7 9.34 7 8.68 7 8 C6.401875 7.79375 5.80375 7.5875 5.1875 7.375 C2.18981233 5.49073918 1.38638224 3.18867916 0 0 Z " fill="#F8E773" transform="translate(239,166)"/>
<path d="M0 0 C2.875 0.625 2.875 0.625 6 2 C7.375 5.125 7.375 5.125 8 8 C5.5 6.625 5.5 6.625 3 5 C3 4.34 3 3.68 3 3 C2.34 3 1.68 3 1 3 C0.67 2.01 0.34 1.02 0 0 Z " fill="#F7E260" transform="translate(221,147)"/>
<path d="M0 0 C1.32 0 2.64 0 4 0 C4.33 0.66 4.66 1.32 5 2 C6.97888961 2.72693904 8.97954558 3.39816251 11 4 C11 4.99 11 5.98 11 7 C7.22272911 5.18690997 3.62730178 3.0926741 0 1 C0 0.67 0 0.34 0 0 Z " fill="#325746" transform="translate(233,105)"/>
<path d="M0 0 C0.66 0.33 1.32 0.66 2 1 C0.63016497 4.16115776 0.0109362 4.9927092 -3 7 C-3.33 5.35 -3.66 3.7 -4 2 C-2.125 0.9375 -2.125 0.9375 0 0 Z " fill="#46758E" transform="translate(333,105)"/>
<path d="M0 0 C4.75 0.875 4.75 0.875 7 2 C7 2.66 7 3.32 7 4 C7.66 4 8.32 4 9 4 C9 4.66 9 5.32 9 6 C4.64464931 4.83857315 2.35380297 3.92300495 0 0 Z " fill="#F9E565" transform="translate(70,560)"/>
<path d="M0 0 C0.33 1.32 0.66 2.64 1 4 C0.01 4.33 -0.98 4.66 -2 5 C-2 5.66 -2 6.32 -2 7 C-3.65 7.33 -5.3 7.66 -7 8 C-6.02133662 6.85373678 -5.04205413 5.70800212 -4.0625 4.5625 C-3.51722656 3.92441406 -2.97195312 3.28632813 -2.41015625 2.62890625 C-1.63204305 1.73008851 -0.84063472 0.84063472 0 0 Z " fill="#466746" transform="translate(255,442)"/>
<path d="M0 0 C2.5 2.3125 2.5 2.3125 5 5 C5 5.99 5 6.98 5 8 C3.02 6.68 1.04 5.36 -1 4 C-0.67 2.68 -0.34 1.36 0 0 Z " fill="#46748E" transform="translate(328,307)"/>
<path d="M0 0 C1.58437117 0.06047218 3.16767058 0.14938946 4.75 0.25 C5.63171875 0.29640625 6.5134375 0.3428125 7.421875 0.390625 C10.62961216 1.14881742 11.88827535 2.53303195 14 5 C12.22739369 4.54857225 10.4569632 4.08859477 8.6875 3.625 C7.20830078 3.24214844 7.20830078 3.24214844 5.69921875 2.8515625 C3 2 3 2 0 0 Z " fill="#365D3C" transform="translate(214,98)"/>
<path d="M0 0 C3.43595166 1.52708963 6.11912454 3.59927045 9 6 C7.68 6 6.36 6 5 6 C4.67 6.66 4.34 7.32 4 8 C4 6.68 4 5.36 4 4 C2.35 3.67 0.7 3.34 -1 3 C-0.67 2.01 -0.34 1.02 0 0 Z " fill="#668C9F" transform="translate(293,26)"/>
<path d="M0 0 C2.475 0.99 2.475 0.99 5 2 C5.33 4.31 5.66 6.62 6 9 C3.59927045 6.11912454 1.52708963 3.43595166 0 0 Z " fill="#2F5B48" transform="translate(255,380)"/>
<path d="M0 0 C0.99 0.495 0.99 0.495 2 1 C2 1.66 2 2.32 2 3 C2.66 3 3.32 3 4 3 C4.33 4.32 4.66 5.64 5 7 C3.35 7.33 1.7 7.66 0 8 C0 5.36 0 2.72 0 0 Z " fill="#EAD31A" transform="translate(250,375)"/>
<path d="M0 0 C1.32 0 2.64 0 4 0 C4.33 1.32 4.66 2.64 5 4 C6.32 4 7.64 4 9 4 C9.33 4.99 9.66 5.98 10 7 C7.29068581 6.84518205 5.53415961 6.51827919 3.5546875 4.59765625 C2.32320358 3.10228292 1.1570163 1.5537076 0 0 Z " fill="#F9E462" transform="translate(174,360)"/>
<path d="M0 0 C4.06853343 1.35617781 5.46850875 3.60247226 8 7 C8.8125 9.375 8.8125 9.375 9 11 C5.36440339 7.56638098 2.63886654 4.2026393 0 0 Z " fill="#F8EB7F" transform="translate(55,248)"/>
<path d="M0 0 C0.66 0 1.32 0 2 0 C2.625 1.875 2.625 1.875 3 4 C2.34 4.66 1.68 5.32 1 6 C0.01 6 -0.98 6 -2 6 C-2.33 5.01 -2.66 4.02 -3 3 C-2.34 3 -1.68 3 -1 3 C-0.67 2.01 -0.34 1.02 0 0 Z " fill="#175465" transform="translate(276,137)"/>
<path d="M0 0 C-0.33 0.66 -0.66 1.32 -1 2 C-3.06640625 2.6328125 -3.06640625 2.6328125 -5.5625 3.125 C-6.80193359 3.37636719 -6.80193359 3.37636719 -8.06640625 3.6328125 C-8.70449219 3.75398437 -9.34257812 3.87515625 -10 4 C-10 3.34 -10 2.68 -10 2 C-6.5980513 -0.09350689 -3.94727588 -0.17942163 0 0 Z " fill="#F3DC50" transform="translate(236,579)"/>
<path d="M0 0 C1.65 0 3.3 0 5 0 C1.80009492 2.74277578 -1.00499382 4.6302836 -5 6 C-4.34 4.68 -3.68 3.36 -3 2 C-2.01 2 -1.02 2 0 2 C0 1.34 0 0.68 0 0 Z " fill="#F6E25A" transform="translate(262,565)"/>
<path d="M0 0 C1.32 0.33 2.64 0.66 4 1 C4.66 3.64 5.32 6.28 6 9 C5.34 9 4.68 9 4 9 C3.3309224 7.68872739 2.66480194 6.3759455 2 5.0625 C1.62875 4.33160156 1.2575 3.60070312 0.875 2.84765625 C0 1 0 1 0 0 Z " fill="#305B44" transform="translate(41,463)"/>
<path d="M0 0 C0.33 0.66 0.66 1.32 1 2 C2.32 2 3.64 2 5 2 C4.34 3.32 3.68 4.64 3 6 C1.68 5.67 0.36 5.34 -1 5 C-0.67 3.35 -0.34 1.7 0 0 Z " fill="#336B8C" transform="translate(355,459)"/>
<path d="M0 0 C0.33 1.32 0.66 2.64 1 4 C0.34 4 -0.32 4 -1 4 C-1 5.32 -1 6.64 -1 8 C-2.65 8.66 -4.3 9.32 -6 10 C-4.07119658 6.59244728 -2.1723491 3.25852365 0 0 Z " fill="#4A6B3F" transform="translate(262,432)"/>
<path d="M0 0 C4 0 4 0 6.25 2 C6.8275 2.66 7.405 3.32 8 4 C7.67 4.99 7.34 5.98 7 7 C5.83040013 6.02433888 4.66438823 5.044375 3.5 4.0625 C2.8503125 3.51722656 2.200625 2.97195313 1.53125 2.41015625 C1.0259375 1.94480469 0.520625 1.47945313 0 1 C0 0.67 0 0.34 0 0 Z " fill="#FBE560" transform="translate(144,335)"/>
<path d="M0 0 C0.99 0.33 1.98 0.66 3 1 C3 1.66 3 2.32 3 3 C3.66 3 4.32 3 5 3 C4.34 4.32 3.68 5.64 3 7 C2.67 6.01 2.34 5.02 2 4 C0.68 4 -0.64 4 -2 4 C-2 3.34 -2 2.68 -2 2 C-1.34 2 -0.68 2 0 2 C0 1.34 0 0.68 0 0 Z " fill="#255F7A" transform="translate(291,137)"/>
<path d="M0 0 C1.98 0 3.96 0 6 0 C2.8745041 2.64465038 -0.08788267 3.84414715 -4 5 C-3.67 4.01 -3.34 3.02 -3 2 C-2.01 2 -1.02 2 0 2 C0 1.34 0 0.68 0 0 Z " fill="#3C6247" transform="translate(276,545)"/>
<path d="M0 0 C0.99 0.33 1.98 0.66 3 1 C2.34 1 1.68 1 1 1 C0.731875 1.61875 0.46375 2.2375 0.1875 2.875 C-1 5 -1 5 -4 7 C-4 4 -4 4 -2 1.8125 C-1.34 1.214375 -0.68 0.61625 0 0 Z " fill="#5C849A" transform="translate(331,507)"/>
<path d="M0 0 C1.65 0 3.3 0 5 0 C5.66 2.31 6.32 4.62 7 7 C3.42895561 5.12050295 1.45255699 3.82946843 0 0 Z " fill="#3B624D" transform="translate(159,292)"/>
<path d="M0 0 C0.99 0.33 1.98 0.66 3 1 C3 1.66 3 2.32 3 3 C4.32 3.66 5.64 4.32 7 5 C6.01 6.485 6.01 6.485 5 8 C3.5 6.6875 3.5 6.6875 2 5 C2 4.01 2 3.02 2 2 C1.34 2 0.68 2 0 2 C0 1.34 0 0.68 0 0 Z " fill="#5E889C" transform="translate(288,267)"/>
<path d="M0 0 C0.886875 0.103125 1.77375 0.20625 2.6875 0.3125 C0.45924356 2.54075644 -0.97011628 3.00489369 -3.9375 3.9375 C-4.75476563 4.19789063 -5.57203125 4.45828125 -6.4140625 4.7265625 C-7.04054687 4.91992188 -7.66703125 5.11328125 -8.3125 5.3125 C-4.12788462 0.38942308 -4.12788462 0.38942308 0 0 Z " fill="#F7E668" transform="translate(254.3125,570.6875)"/>
<path d="M0 0 C0.66 0 1.32 0 2 0 C1.45773019 3.79588866 -0.20127563 5.47211993 -3 8 C-3 6.68 -3 5.36 -3 4 C-2.34 4 -1.68 4 -1 4 C-0.67 2.68 -0.34 1.36 0 0 Z " fill="#577C93" transform="translate(339,496)"/>
<path d="M0 0 C2.475 0.99 2.475 0.99 5 2 C5 3.98 5 5.96 5 8 C2.27573689 5.64722731 1.1858237 3.37503669 0 0 Z " fill="#F8E763" transform="translate(1,477)"/>
<path d="M0 0 C2 2 2 2 2 5 C-0.31 5.33 -2.62 5.66 -5 6 C-3.35 4.02 -1.7 2.04 0 0 Z " fill="#E8DE73" transform="translate(33,450)"/>
<path d="M0 0 C1.32 1.32 2.64 2.64 4 4 C3.67 4.66 3.34 5.32 3 6 C1.35 5.67 -0.3 5.34 -2 5 C-1.34 3.35 -0.68 1.7 0 0 Z " fill="#4F7E93" transform="translate(139,426)"/>
<path d="M0 0 C2.39073445 3.82517513 2.55966552 7.59665524 3 12 C2.731875 11.401875 2.46375 10.80375 2.1875 10.1875 C1.1106021 7.95672092 1.1106021 7.95672092 -0.625 6.375 C-1.07875 5.92125 -1.5325 5.4675 -2 5 C-2 4.34 -2 3.68 -2 3 C-1.34 3 -0.68 3 0 3 C0 2.01 0 1.02 0 0 Z " fill="#7296B1" transform="translate(363,373)"/>
<path d="M0 0 C3.16115776 1.36983503 3.9927092 1.9890638 6 5 C5.34 5 4.68 5 4 5 C3.67 5.66 3.34 6.32 3 7 C0.64046906 4.64046906 0.50858587 3.22104383 0 0 Z " fill="#4D7997" transform="translate(248,233)"/>
<path d="M0 0 C0.99 0.495 0.99 0.495 2 1 C2 1.66 2 2.32 2 3 C2.66 3 3.32 3 4 3 C4.66 4.65 5.32 6.3 6 8 C5.01 8.33 4.02 8.66 3 9 C2.01 6.03 1.02 3.06 0 0 Z " fill="#E2D43F" transform="translate(276,146)"/>
<path d="M0 0 C0.99 0.495 0.99 0.495 2 1 C2 1.66 2 2.32 2 3 C2.639375 3.28875 3.27875 3.5775 3.9375 3.875 C6 5 6 5 7 7 C5.02 7 3.04 7 1 7 C1.33 6.34 1.66 5.68 2 5 C1.67 4.67 1.34 4.34 1 4 C0.63837971 2.67405895 0.30271961 1.34061543 0 0 Z " fill="#D6C728" transform="translate(251,118)"/>
<path d="M0 0 C0.33 0 0.66 0 1 0 C0.979375 0.94875 0.95875 1.8975 0.9375 2.875 C0.77448174 5.90666283 0.77448174 5.90666283 2 8 C0.35 8.33 -1.3 8.66 -3 9 C-2.01 6.03 -1.02 3.06 0 0 Z " fill="#225352" transform="translate(70,75)"/>
<path d="M0 0 C0.33 0.66 0.66 1.32 1 2 C0.0625 4.125 0.0625 4.125 -1 6 C-2.65 6 -4.3 6 -6 6 C-2.25 1.125 -2.25 1.125 0 0 Z " fill="#E0DA77" transform="translate(82,54)"/>
<path d="M0 0 C1.65 0 3.3 0 5 0 C5.66 1.32 6.32 2.64 7 4 C2.25 3.125 2.25 3.125 0 2 C0 1.34 0 0.68 0 0 Z " fill="#F7DD48" transform="translate(79,565)"/>
<path d="M0 0 C4.875 2.75 4.875 2.75 6 5 C4.02 5 2.04 5 0 5 C-0.33 4.34 -0.66 3.68 -1 3 C-0.67 2.01 -0.34 1.02 0 0 Z " fill="#E0CA23" transform="translate(98,530)"/>
<path d="M0 0 C0.66 0.33 1.32 0.66 2 1 C1.67 1.99 1.34 2.98 1 4 C-1.31 4.33 -3.62 4.66 -6 5 C-2.25 1.125 -2.25 1.125 0 0 Z " fill="#7191A4" transform="translate(84,419)"/>
<path d="M0 0 C1.32 1.32 2.64 2.64 4 4 C3.67 4.99 3.34 5.98 3 7 C0.9375 7.6875 0.9375 7.6875 -1 8 C-0.649375 7.236875 -0.29875 6.47375 0.0625 5.6875 C1.32360884 2.95240621 1.32360884 2.95240621 0 0 Z " fill="#618B9F" transform="translate(337,318)"/>
<path d="M0 0 C3.68802044 1.22934015 4.72356973 2.93859378 7 6 C4.03 5.505 4.03 5.505 1 5 C0.67 3.35 0.34 1.7 0 0 Z " fill="#DECC25" transform="translate(182,313)"/>
<path d="M0 0 C2.88437779 1.29299694 4.87219421 2.65941363 7 5 C1.25 4.25 1.25 4.25 -1 2 C-0.67 1.34 -0.34 0.68 0 0 Z " fill="#4E778D" transform="translate(202,194)"/>
<path d="M0 0 C0 3.15081975 -0.27898465 4.41847698 -2 7 C-4.125 7.75 -4.125 7.75 -6 8 C-4.55746343 4.63408134 -2.66735273 2.48952921 0 0 Z " fill="#FAE461" transform="translate(58,76)"/>
<path d="M0 0 C1.485 0.99 1.485 0.99 3 2 C3 2.66 3 3.32 3 4 C4.32 4.66 5.64 5.32 7 6 C4.37886292 6 2.49064888 5.68707555 0 5 C0 3.35 0 1.7 0 0 Z " fill="#63899E" transform="translate(348,75)"/>
<path d="M0 0 C0.99 0 1.98 0 3 0 C2.46930939 3.82097239 1.50298434 6.06171403 -1 9 C-0.67 6.03 -0.34 3.06 0 0 Z " fill="#C2BE2C" transform="translate(67,75)"/>
<path d="M0 0 C0.66 0.66 1.32 1.32 2 2 C1.67 2.66 1.34 3.32 1 4 C0.34 4 -0.32 4 -1 4 C-1.33 4.99 -1.66 5.98 -2 7 C-2.66 5.68 -3.32 4.36 -4 3 C-2.68 2.01 -1.36 1.02 0 0 Z " fill="#DDCE2F" transform="translate(78,59)"/>
<path d="M0 0 C0.66 0 1.32 0 2 0 C1.67 1.32 1.34 2.64 1 4 C0.34 4 -0.32 4 -1 4 C-1.33 4.99 -1.66 5.98 -2 7 C-2.33 5.68 -2.66 4.36 -3 3 C-2.01 2.67 -1.02 2.34 0 2 C0 1.34 0 0.68 0 0 Z " fill="#1A5360" transform="translate(74,500)"/>
<path d="M0 0 C2.9375 0.75 2.9375 0.75 6 2 C6.875 4.125 6.875 4.125 7 6 C4.12549673 4.71142957 2.07476576 3.38598062 0 1 C0 0.67 0 0.34 0 0 Z " fill="#386542" transform="translate(197,324)"/>
<path d="M0 0 C1.8125 0.125 1.8125 0.125 4 1 C5.75 4.0625 5.75 4.0625 7 7 C3.17053157 5.54744301 1.87949705 3.57104439 0 0 Z " fill="#FAEA78" transform="translate(77,273)"/>
<path d="M0 0 C2.475 0.495 2.475 0.495 5 1 C5.33 2.65 5.66 4.3 6 6 C3.97945196 4.35830472 1.97956942 2.69088222 0 1 C0 0.67 0 0.34 0 0 Z " fill="#3F634A" transform="translate(112,249)"/>
<path d="M0 0 C2.97 1.98 2.97 1.98 6 4 C5.67 4.66 5.34 5.32 5 6 C3.66666667 6 2.33333333 6 1 6 C0.67 4.02 0.34 2.04 0 0 Z " fill="#63889C" transform="translate(171,164)"/>
<path d="M0 0 C3.16115776 1.36983503 3.9927092 1.9890638 6 5 C4.02 5 2.04 5 0 5 C0 3.35 0 1.7 0 0 Z " fill="#E6CE26" transform="translate(242,112)"/>
<path d="M0 0 C1.65 1.65 3.3 3.3 5 5 C4.34 5.66 3.68 6.32 3 7 C2.01 6.34 1.02 5.68 0 5 C-0.1875 2.375 -0.1875 2.375 0 0 Z " fill="#527C93" transform="translate(341,67)"/>
<path d="M0 0 C0.99 0 1.98 0 3 0 C3.33 0.99 3.66 1.98 4 3 C3.34 3 2.68 3 2 3 C1.67 3.66 1.34 4.32 1 5 C0.01 5 -0.98 5 -2 5 C-1.34 3.35 -0.68 1.7 0 0 Z " fill="#225356" transform="translate(81,58)"/>
</svg>
